<svg width="200" height="60" viewBox="0 0 200 60" fill="none" xmlns="http://www.w3.org/2000/svg">
<mask id="mask0_18_642" style="mask-type:luminance" maskUnits="userSpaceOnUse" x="0" y="0" width="57" height="60">
<path d="M56.6948 0.0195312H0V59.7424H56.6948V0.0195312Z" fill="white"/>
</mask>
<g mask="url(#mask0_18_642)">
<path d="M30.0002 21.1594H12.3057L0 0.0195312H42.337L30.0002 21.1594Z" fill="white"/>
</g>
<mask id="mask1_18_642" style="mask-type:luminance" maskUnits="userSpaceOnUse" x="0" y="0" width="57" height="60">
<path d="M56.6948 0.0195312H0V59.7424H56.6948V0.0195312Z" fill="white"/>
</mask>
<g mask="url(#mask1_18_642)">
<path d="M44.2589 0.126221L56.6948 21.2596L34.854 59.987H9.3728L44.2589 0.126221Z" fill="white"/>
</g>
<path d="M178.766 46.1604C178 46.1066 176.746 45.9249 176.156 45.7819C173.527 45.1453 172.209 43.9708 171.618 41.7356C171.468 41.1726 171.449 40.9594 171.422 39.5484C171.4 38.4358 171.413 37.9445 171.466 37.8448C171.54 37.7068 171.563 37.7049 172.979 37.7221L174.418 37.7396L174.424 38.9393C174.429 39.8566 174.456 40.2307 174.541 40.5282C174.903 41.8095 175.705 42.5832 177.059 42.959C178.59 43.3843 179.456 43.4279 185.77 43.3986C191.678 43.3711 192.087 43.3493 193.519 42.9861C195.163 42.569 195.998 41.7636 196.352 40.2528C196.52 39.5373 196.519 37.4727 196.35 36.8693C196.032 35.7315 195.473 35.1272 194.427 34.7938C193.361 34.4535 193.31 34.4513 185.446 34.4023C178.428 34.3585 178.081 34.3507 177.264 34.2199C175.717 33.9722 174.895 33.7312 174.01 33.2658C172.565 32.5066 171.681 31.0747 171.406 29.0492C171.296 28.2404 171.353 26.036 171.501 25.3855C171.76 24.2453 172.238 23.328 172.934 22.6331C173.68 21.8893 174.571 21.4399 176.03 21.0726C177.489 20.7051 178.62 20.5928 181.723 20.5077C184.901 20.4204 191.851 20.5232 193.228 20.6778C196.363 21.0297 197.881 21.9995 198.585 24.0987C198.854 24.9036 198.974 25.803 198.953 26.8636L198.935 27.7525H197.475H196.016L195.974 27.0068C195.901 25.7043 195.646 24.929 195.098 24.3435C194.595 23.8055 193.918 23.5345 192.564 23.3288C191.872 23.2237 191.225 23.213 185.575 23.213C178.922 23.213 178.486 23.2301 177.267 23.5382C176.088 23.836 175.414 24.3155 175.004 25.1483C174.671 25.8235 174.561 26.5045 174.601 27.6228C174.693 30.1678 175.589 31.0551 178.473 31.4585C179.104 31.5468 180.329 31.5704 186.354 31.6103C193.706 31.6591 194.008 31.6703 195.363 31.9427C197.939 32.4609 199.239 33.9363 199.546 36.6892C199.647 37.5991 199.633 39.8231 199.521 40.5606C199.188 42.757 198.231 44.2277 196.6 45.0514C195.766 45.4727 194.369 45.8388 192.78 46.0525C192.106 46.1431 191.088 46.1598 185.543 46.1706C181.994 46.1775 178.944 46.1729 178.766 46.1604ZM60.8347 33.3297V20.7811H63.2992H65.7637L77.0261 31.8219C83.2204 37.8944 88.3273 42.8722 88.3747 42.8837C88.446 42.9011 88.4636 41.0044 88.4772 31.8591L88.4936 20.8135H90.0176H91.5416L91.558 33.3459L91.5743 45.8784H89.2878H87.0012L76.0742 35.1724C70.0644 29.2842 64.9056 24.2282 64.6103 23.937C64.1759 23.5087 64.0615 23.4261 64.0114 23.5048C63.9728 23.5656 63.9492 27.7856 63.9486 34.7402L63.9476 45.8784H62.3911H60.8347V33.3297ZM97.8157 33.3459L97.8321 20.8135H110.154H122.475L122.493 22.1914L122.51 23.5693L111.695 23.5857L100.88 23.6021V27.5256V31.449L111.241 31.4655L121.603 31.4819L121.585 32.8597L121.568 34.2376L111.224 34.2701L100.88 34.3025L100.863 38.6959L100.847 43.0894L111.661 43.1058L122.475 43.1222L122.493 44.5003L122.51 45.8784H110.155H97.7994L97.8157 33.3459ZM133.695 45.6036C132.831 43.4677 124.14 20.8808 124.166 20.8389C124.186 20.8071 124.885 20.7811 125.72 20.7811C127.225 20.7811 127.24 20.7825 127.332 20.927C127.382 21.0072 129.327 25.9902 131.653 32.0003C133.978 38.0103 135.91 42.9818 135.945 43.0481C135.98 43.1143 136.032 43.1435 136.06 43.1129C136.088 43.0824 137.957 38.0817 140.213 32.0003C142.469 25.9189 144.344 20.9063 144.38 20.8612C144.43 20.7976 144.903 20.7831 146.49 20.7964L148.536 20.8135L152.639 31.9285C154.896 38.0418 156.772 43.0733 156.808 43.1097C156.853 43.1545 156.893 43.1255 156.935 43.0193C157.786 40.8281 165.08 22.1403 165.299 21.5917L165.609 20.8135L167.218 20.7961L168.827 20.7788L168.798 20.9327C168.781 21.0173 166.599 26.6647 163.948 33.4824L159.127 45.8784H156.875C155.133 45.8784 154.616 45.86 154.592 45.7973C154.576 45.7527 152.774 40.9302 150.589 35.0807C148.403 29.2311 146.589 24.3747 146.557 24.2887C146.513 24.1726 146.479 24.1511 146.425 24.2053C146.385 24.2455 144.538 29.1311 142.322 35.0622L138.293 45.8459L136.05 45.863L133.807 45.88L133.695 45.6036Z" fill="white"/>
</svg>
