<svg xmlns="http://www.w3.org/2000/svg" fill="none" viewBox="0 0 200 48" height="48" width="200">
<g clip-path="url(#clip0_1043_18)">
<path fill="white" d="M35.8447 44.8151C35.4795 46.2955 35.3881 46.4749 35.0228 46.4749H30.6849V46.789H40.5479V46.4749H36.0274C35.7534 46.4749 35.7991 46.2506 36.1187 44.9049L39.1324 33.331H51.1416L54.7945 46.4749H49.9087V46.789H66.3014V46.4749H61.1872L47.6712 0.134766H47.5799L35.8447 44.8151ZM44.9772 11.1703L51.0959 33.017H39.2694L44.9772 11.1703ZM177.123 23.6413H180.868C184.201 23.6413 189.087 25.032 189.087 30.774V41.1366C189.087 45.3535 191.461 48.045 195.662 48.045C199.863 48.045 200 43.6488 200 40.5086V37.189H199.68V40.5086C199.68 44.0974 199.269 47.2376 197.078 47.2376C194.886 47.2376 194.749 46.0712 194.749 41.2264V30.8189C194.749 26.0189 190.776 24.2693 184.658 23.5516C192.283 22.6544 195.16 17.8544 195.16 12.5609C195.16 4.71047 191.461 1.4357 182.009 1.4357H166.986V1.70486H170.913C171.187 1.70486 171.324 1.79458 171.324 1.92916V46.2506C171.324 46.4301 171.187 46.4749 170.913 46.4749H166.986V46.789H180.822V46.4749H177.489C177.215 46.4749 177.078 46.3852 177.078 46.2506V23.6413H177.123ZM177.123 1.66H181.187C187.443 1.66 189.178 6.32542 189.178 12.4712C189.178 18.617 187.397 23.2824 181.187 23.2824H177.123V1.66ZM76.5753 46.2506C76.5297 46.3404 76.5753 46.4749 76.8036 46.4749H87.5799C90.9132 46.4749 95.1598 41.675 95.1598 26.1535V24.5385H95.4795V46.789H69.7717L89.2237 1.8843C89.2694 1.79458 89.2237 1.66 88.9954 1.66H77.5799C74.5662 1.66 70.2283 7.04318 70.2283 21.9815V23.5964H69.9087V1.39084H96.0731L76.5753 46.2506ZM12.9224 1.66C19.1781 1.66 21.6895 6.32542 21.6895 12.4712C21.6895 18.617 19.1324 22.8787 12.9224 22.8787H10.0913V1.66H12.9224ZM0 1.39084V1.70486H3.92694C4.20091 1.70486 4.3379 1.79458 4.3379 1.92916V46.2506C4.3379 46.4301 4.20091 46.4749 3.92694 46.4749H0V46.789H14.7032C24.2009 46.789 29.2237 42.931 29.2237 35.0806C29.2237 27.2301 26.2557 24.1348 16.8037 23.0581C24.7945 22.3404 27.5799 17.3609 27.5799 12.5609C27.5799 5.51794 23.2877 1.4357 13.79 1.4357H0V1.39084ZM12.9224 23.1927C19.9543 23.1927 22.7397 27.903 22.7397 35.0357C22.7397 42.1684 20.2283 46.4301 14.4292 46.4301H10.5023C10.2283 46.4301 10.0913 46.3404 10.0913 46.2058V23.1927H12.9224ZM103.699 44.8151C103.333 46.2955 103.242 46.4749 102.877 46.4749H98.5388V46.789H108.402V46.4749H103.881C103.607 46.4749 103.653 46.2506 103.973 44.9049L106.986 33.331H118.995L122.648 46.4749H117.763V46.789H134.155V46.4749H129.041L115.525 0.134766H115.434L103.699 44.8151ZM112.831 11.1703L118.95 33.017H107.123L112.831 11.1703Z" clip-rule="evenodd" fill-rule="evenodd"></path>
<path fill="white" d="M136.438 44.8151C136.073 46.2955 135.982 46.4749 135.616 46.4749H131.279V46.789H141.142V46.4749H136.621C136.347 46.4749 136.393 46.2506 136.712 44.9049L139.726 33.331H151.735L155.388 46.4749H150.502V46.789H166.895V46.4749H161.781L148.265 0.134766H148.174L136.438 44.8151ZM145.571 11.1703L151.69 33.017H139.863L145.571 11.1703ZM125.89 6.05626C125.89 6.05626 125.89 6.05626 125.936 6.05626H126.621V6.14598H124.338V6.05626H124.932H124.977V3.81327H122.785V6.05626C122.785 6.05626 122.785 6.05626 122.831 6.05626H123.425V6.14598H121.142V6.05626H121.827H121.872V1.66C121.872 1.66 121.872 1.66 121.827 1.66H121.142V1.57028H123.425V1.66H122.831H122.785V3.72355H124.977V1.66C124.977 1.66 124.977 1.66 124.932 1.66H124.338V1.57028H126.621V1.66H125.936H125.89V6.10112M132.238 4.17215C132.009 4.17215 131.872 4.08243 131.872 3.90299C131.872 3.72355 131.964 3.76841 131.964 3.67869C131.964 3.58897 131.872 3.54411 131.781 3.54411C131.69 3.54411 131.461 3.54411 131.279 4.03757V6.10112C131.279 6.10112 131.279 6.10112 131.324 6.10112H131.735V6.19084H130.137V6.10112H130.548H130.594V3.54411C130.594 3.54411 130.594 3.54411 130.548 3.54411H130.137V3.45439H131.279V3.90299C131.416 3.54411 131.644 3.36467 131.964 3.36467C132.283 3.36467 132.557 3.54411 132.557 3.85813C132.557 4.17215 132.42 4.17215 132.192 4.17215M138.219 6.28056C138.722 6.28056 139.178 6.0114 139.452 5.65252H139.361C139.087 5.96654 138.767 6.19084 138.219 6.19084C137.671 6.19084 137.854 6.19084 137.717 6.05626C137.489 5.87682 137.443 5.65252 137.443 4.84505C137.443 4.03757 137.443 4.75533 137.443 4.71047H139.498C139.498 4.17215 139.132 3.36467 138.174 3.36467C137.215 3.36467 136.667 4.03757 136.667 4.84505C136.667 5.65252 137.306 6.32542 138.174 6.32542M138.585 3.58897C138.722 3.76841 138.813 4.03757 138.813 4.57589H137.443C137.443 4.03757 137.534 3.76841 137.717 3.58897C137.854 3.45439 137.991 3.45439 138.219 3.45439C138.448 3.45439 138.493 3.45439 138.585 3.58897ZM128.037 6.14598C128.402 6.14598 128.63 5.87682 128.63 5.65252V4.66561C128.448 4.75533 128.219 4.75533 127.991 4.80019C127.763 4.80019 127.489 4.97963 127.489 5.5628C127.489 6.14598 127.808 6.14598 128.037 6.14598ZM127.169 3.90299C127.169 3.67869 127.489 3.31981 128.037 3.31981C128.904 3.31981 129.315 3.67869 129.315 4.53103V5.87682C129.315 6.05626 129.406 6.10112 129.498 6.10112C129.589 6.10112 129.726 6.0114 129.772 5.92168L129.863 6.0114C129.863 6.14598 129.589 6.28056 129.315 6.28056C129.041 6.28056 128.722 6.10112 128.676 5.83196C128.585 6.10112 128.311 6.28056 127.9 6.28056C127.26 6.28056 126.804 6.05626 126.804 5.60766C126.804 4.93477 127.534 4.75533 127.854 4.71047C128.265 4.71047 128.63 4.66561 128.63 4.53103V4.12729C128.63 3.63383 128.402 3.45439 128.037 3.45439C127.671 3.45439 127.717 3.54411 127.717 3.72355C127.717 3.90299 127.763 3.85813 127.763 3.99271C127.763 4.12729 127.671 4.21701 127.443 4.21701C127.215 4.21701 127.123 4.08243 127.123 3.90299M135.206 3.58897C135.069 3.45439 134.932 3.45439 134.749 3.45439C134.566 3.45439 134.292 3.63383 134.11 3.81327V5.7871C134.201 6.0114 134.475 6.19084 134.749 6.19084C135.023 6.19084 135.114 6.19084 135.206 6.05626C135.388 5.87682 135.525 5.51794 135.525 4.84505C135.525 4.17215 135.388 3.81327 135.206 3.58897ZM136.256 4.80019C136.256 5.51794 135.616 6.2357 134.749 6.2357C133.881 6.2357 134.292 6.05626 134.11 5.92168V8.11981C134.11 8.11981 134.11 8.11981 134.155 8.11981H134.566V8.20953H132.968V8.11981H133.379H133.425V3.49925C133.425 3.49925 133.425 3.49925 133.379 3.49925H132.968V3.40953H134.11V3.67869C134.247 3.49925 134.475 3.36467 134.749 3.36467C135.616 3.36467 136.256 4.12729 136.256 4.84505M144.977 3.40953C145.069 3.40953 145.114 3.40953 145.114 3.36467H145.251V4.08243H145.114C145.114 3.67869 144.749 3.45439 144.384 3.45439C144.018 3.45439 143.836 3.63383 143.836 3.85813C143.836 4.08243 144.064 4.35159 144.612 4.48617C145.16 4.62075 145.571 4.93477 145.571 5.3385C145.571 5.74224 145.114 6.28056 144.429 6.28056C143.744 6.28056 143.836 6.10112 143.607 6.10112C143.516 6.10112 143.425 6.14598 143.379 6.2357H143.242V5.29364H143.379C143.379 5.7871 143.836 6.19084 144.384 6.19084C144.932 6.19084 145.069 6.0114 145.069 5.65252C145.069 5.29364 144.795 5.15906 144.247 4.97963C143.744 4.84505 143.379 4.62075 143.379 4.17215C143.379 3.72355 143.881 3.31981 144.338 3.31981C144.795 3.31981 144.658 3.40953 144.932 3.40953M142.877 2.42262C142.877 2.24318 143.059 2.06374 143.242 2.06374C143.425 2.06374 143.607 2.19832 143.607 2.46748C143.607 2.82635 143.288 3.18523 142.877 3.45439V3.36467C143.105 3.18523 143.333 2.96093 143.47 2.64692C143.425 2.69177 143.333 2.73663 143.242 2.73663C143.059 2.73663 142.877 2.60206 142.877 2.37776M141.918 4.17215C141.69 4.17215 141.553 4.08243 141.553 3.90299C141.553 3.72355 141.644 3.76841 141.644 3.67869C141.644 3.58897 141.553 3.54411 141.461 3.54411C141.37 3.54411 141.142 3.54411 140.959 4.03757V6.10112C140.959 6.10112 140.959 6.10112 141.005 6.10112H141.416V6.19084H139.817V6.10112H140.228H140.274V3.54411C140.274 3.54411 140.274 3.54411 140.228 3.54411H139.817V3.45439H140.959V3.90299C141.096 3.54411 141.324 3.36467 141.644 3.36467C141.964 3.36467 142.237 3.54411 142.237 3.85813C142.237 4.17215 142.101 4.17215 141.872 4.17215" clip-rule="evenodd" fill-rule="evenodd"></path>
</g>
<defs>
<clipPath id="clip0_1043_18">
<rect fill="white" height="48" width="200"></rect>
</clipPath>
</defs>
</svg>
