<svg width="215" height="185" viewBox="0 0 215 185" fill="none" xmlns="http://www.w3.org/2000/svg">
<path d="M31.587 133.613C32.4985 131.185 32.7146 129.218 33.4664 126C34.2463 128.815 34.5094 131.908 36.0223 134.067C37.7324 136.496 41.134 137.504 44 137.782C41.3971 138.311 38.3996 138.067 36.6612 140C34.6222 142.261 34.6316 146.059 34.5 149C34.406 146.773 33.6449 143.874 32.2448 142.059C30.9105 140.345 27.18 138.672 25 138.319C27.368 137.193 30.6004 136.21 31.5776 133.622L31.587 133.613Z" fill="white"/>
<path d="M167.547 13.2894C168.315 11.2832 168.497 9.65875 169.13 7C169.786 9.32554 170.008 11.8802 171.282 13.6642C172.722 15.6704 175.587 16.5035 178 16.7326C175.808 17.1699 173.284 16.9686 171.82 18.5652C170.103 20.4326 170.111 23.5703 170 26C169.921 24.1604 169.28 21.7654 168.101 20.266C166.977 18.8498 163.836 17.4684 162 17.1768C163.994 16.2466 166.716 15.4344 167.539 13.2963L167.547 13.2894Z" fill="white"/>
<path d="M87.0535 83.0057C82.4203 79.2673 73.8462 70.5155 71.3007 75.4932C66.6675 82.0355 69.4474 84.8393 75.9339 92.3161C82.4203 99.793 76.8605 96.9892 87.0535 125.962C97.2465 154.935 130.605 145.589 144.505 139.981C158.404 134.373 151.917 118.485 148.211 111.943C144.504 105.401 137.091 99.793 128.752 99.793C122.006 99.793 126.737 92.6795 123.192 84.8393C120.154 78.1182 105.615 73.7738 102.923 75.4932C102.013 76.0743 111.112 80.6564 101.846 86.264C98.4751 88.3042 91.6867 86.7441 87.0535 83.0057Z" fill="#FFE7EA"/>
<path d="M103.086 73C102.001 78.4701 111.485 79.4591 117.021 82.2923C122.556 85.1256 126.246 89.8476 125.324 94.5696C124.401 99.2917 125.324 99.2917 125.324 99.2917C125.324 99.2917 132.704 97.4029 140.084 102.125C147.465 106.847 153 113.39 153 121.889C153 128.689 151.155 134.167 149.31 137" stroke="#8BC3F5" stroke-width="4" stroke-linecap="round" stroke-linejoin="round"/>
<path d="M73 89C75.7973 90.9445 82.1378 99.0002 85.1216 115.667C88.8514 136.501 103.77 144.001 117.757 145.668C128.946 147.001 138.581 144.001 142 142.334" stroke="#8BC3F5" stroke-width="4" stroke-linecap="round" stroke-linejoin="round"/>
<path d="M63.0574 100C62.4313 109.58 66.8144 136.78 81.8396 150.13C97.8039 164.315 121.281 162.116 135.368 157.48C149.454 152.845 157.126 147.728 157.905 140.859C158.684 133.991 154.461 131.831 153.209 130.594" stroke="#8BC3F5" stroke-width="4" stroke-linecap="round" stroke-linejoin="round"/>
<path d="M64.4335 52.9291C67.2211 38.0721 72.8865 16.289 97.9746 7.0033C115.629 0.468921 133.764 5.07244 138.41 16.2152C140.912 22.2152 135.175 28.6785 126.549 31.9298C121.895 33.6839 116.489 34.0455 116.305 33.7421C113.808 29.6215 104.983 29.7623 103.366 38.4324C100.594 53.2938 75.4529 65.6609 70.9378 72.4289C66.4777 79.1145 67.2211 91.0001 65.3627 95.6429C63.5043 100.286 59.7876 103.071 57 104" stroke="#8BC3F5" stroke-width="4" stroke-linecap="round" stroke-linejoin="round"/>
<path d="M103.3 72.7431C105.07 69.0384 109.075 61.4071 110.928 60.5193C113.245 59.4095 115.701 62.0467 119.503 64.6337C123.305 67.2207 124.6 65.8079 126.567 64.37C128.535 62.9321 130.089 59.4629 131.371 57.7095C132.653 55.9561 133.325 55.3981 134.323 55.5527C135.661 55.7599 137.756 55.6858 137.382 54.6764C136.84 53.2164 135.439 49.3709 135.661 46.2926C135.955 42.2161 137.181 41.1326 137.924 39.5074C139.549 36.7986 140.632 28.1305 137.924 23.7966" stroke="#8BC3F5" stroke-width="4" stroke-linecap="round" stroke-linejoin="round"/>
</svg>
