<svg width="275" height="272" viewBox="0 0 275 272" fill="none" xmlns="http://www.w3.org/2000/svg">
<path d="M66.087 184.613C66.9985 182.185 67.2146 180.218 67.9664 177C68.7463 179.815 69.0094 182.908 70.5223 185.067C72.2324 187.496 75.634 188.504 78.5 188.782C75.8971 189.311 72.8996 189.067 71.1612 191C69.1222 193.261 69.1316 197.059 69 200C68.906 197.773 68.1449 194.874 66.7448 193.059C65.4105 191.345 61.68 189.672 59.5 189.319C61.868 188.193 65.1004 187.21 66.0776 184.622L66.087 184.613Z" fill="white"/>
<path d="M202.047 64.2894C202.815 62.2832 202.997 60.6588 203.63 58C204.286 60.3255 204.508 62.8802 205.782 64.6642C207.222 66.6704 210.087 67.5035 212.5 67.7326C210.308 68.1699 207.784 67.9686 206.32 69.5652C204.603 71.4326 204.611 74.5703 204.5 77C204.421 75.1604 203.78 72.7654 202.601 71.266C201.477 69.8498 198.336 68.4684 196.5 68.1768C198.494 67.2466 201.216 66.4344 202.039 64.2963L202.047 64.2894Z" fill="white"/>
<path d="M121.553 134.006C116.92 130.267 108.346 121.516 105.801 126.493C101.168 133.035 103.947 135.839 110.434 143.316C116.92 150.793 111.361 147.989 121.553 176.962C131.746 205.935 165.105 196.589 179.005 190.981C192.904 185.373 186.417 169.485 182.711 162.943C179.004 156.401 171.591 150.793 163.252 150.793C156.506 150.793 161.237 143.679 157.692 135.839C154.654 129.118 140.115 124.774 137.423 126.493C136.513 127.074 145.612 131.656 136.346 137.264C132.975 139.304 126.187 137.744 121.553 134.006Z" fill="#FFE7EA"/>
<path d="M137.586 124C136.501 129.47 145.985 130.459 151.521 133.292C157.056 136.126 160.746 140.848 159.824 145.57C158.901 150.292 159.824 150.292 159.824 150.292C159.824 150.292 167.204 148.403 174.584 153.125C181.965 157.847 187.5 164.39 187.5 172.889C187.5 179.689 185.655 185.167 183.81 188" stroke="#8BC3F5" stroke-width="4" stroke-linecap="round" stroke-linejoin="round"/>
<path d="M107.5 140C110.297 141.944 116.638 150 119.622 166.667C123.351 187.501 138.27 195.001 152.257 196.668C163.446 198.001 173.081 195.001 176.5 193.334" stroke="#8BC3F5" stroke-width="4" stroke-linecap="round" stroke-linejoin="round"/>
<path d="M97.5574 151C96.9313 160.58 101.314 187.78 116.34 201.13C132.304 215.315 155.781 213.116 169.868 208.48C183.954 203.845 191.626 198.728 192.405 191.859C193.184 184.991 188.961 182.831 187.709 181.594" stroke="#8BC3F5" stroke-width="4" stroke-linecap="round" stroke-linejoin="round"/>
<path d="M98.9335 103.929C101.721 89.0721 107.386 67.289 132.475 58.0033C150.129 51.4689 168.264 56.0724 172.91 67.2152C175.412 73.2152 169.675 79.6785 161.049 82.9298C156.395 84.6839 150.989 85.0455 150.805 84.7421C148.308 80.6215 139.483 80.7623 137.866 89.4324C135.094 104.294 109.953 116.661 105.438 123.429C100.978 130.115 101.721 142 99.8627 146.643C98.0043 151.286 94.2876 154.071 91.5 155" stroke="#8BC3F5" stroke-width="4" stroke-linecap="round" stroke-linejoin="round"/>
<path d="M137.799 123.743C139.569 120.038 143.574 112.407 145.427 111.519C147.744 110.409 150.2 113.047 154.002 115.634C157.804 118.221 159.099 116.808 161.066 115.37C163.034 113.932 164.588 110.463 165.87 108.71C167.152 106.956 167.824 106.398 168.822 106.553C170.16 106.76 172.255 106.686 171.881 105.676C171.339 104.216 169.938 100.371 170.16 97.2926C170.454 93.2161 171.68 92.1326 172.423 90.5074C174.048 87.7986 175.131 79.1305 172.423 74.7966" stroke="#8BC3F5" stroke-width="4" stroke-linecap="round" stroke-linejoin="round"/>
</svg>
