<svg width="275" height="272" viewBox="0 0 275 272" fill="none" xmlns="http://www.w3.org/2000/svg">
<path d="M163.117 115.039C154.859 129.616 150.504 132.428 140.396 128.657C132.187 125.595 128.49 117.326 131.96 108.112C135.43 98.8973 140.857 87.6297 143.089 81.7064C145.32 75.7835 149.968 65.5059 163.081 70.5547C176.048 75.5477 176.932 85.3619 173.958 93.2601C170.983 101.158 171.102 100.942 163.117 115.039Z" fill="#F2E1F4"/>
<path d="M164.124 112.378C157.216 126.843 149.782 135.924 135.824 130.346C126.864 127.003 123.033 117.794 126.458 108.699C129.883 99.6041 138.935 75.5665 141.138 69.72C143.341 63.8739 153.553 61.8686 162.886 65.6165C175.884 70.8363 177.213 77.6222 174.277 85.418C171.341 93.2138 171.031 97.9141 164.124 112.378Z" stroke="#8BC3F5" stroke-width="4" stroke-linecap="round" stroke-linejoin="round"/>
<path d="M136.681 81.549C134.293 81.2569 127.947 84.041 121.674 97.5143C115.4 110.988 108.715 129.594 102.602 143.5C96.4877 157.406 89.0379 175 81.0004 189.174" stroke="#8BC3F5" stroke-width="4" stroke-linecap="round" stroke-linejoin="round"/>
<path d="M171.14 95.4727C173.272 97.7044 175.724 106.795 168.479 125.305C161.234 143.815 145.304 185 136.764 213" stroke="#8BC3F5" stroke-width="4" stroke-linecap="round" stroke-linejoin="round"/>
<path d="M117.743 147.862C119.981 148.311 124.129 149.324 129.545 151.662C134.961 154 137.462 155.598 139.183 157.117" stroke="#BEDFFF" stroke-width="3" stroke-linecap="round" stroke-linejoin="round"/>
<path d="M114.501 154.813C115.643 156.08 119.136 159.228 123.979 161.685C128.822 164.143 134.458 165.059 136.671 165.21" stroke="#BEDFFF" stroke-width="3" stroke-linecap="round" stroke-linejoin="round"/>
<path d="M86.2258 71.9583C86.9488 70.0577 87.1202 68.5188 87.7165 66C88.3351 68.2031 88.5438 70.6233 89.7438 72.3135C91.1003 74.2141 93.7984 75.0033 96.0717 75.2203C94.0071 75.6346 91.6295 75.4439 90.2506 76.9565C88.6332 78.7256 88.6407 81.6982 88.5364 84C88.4618 82.2572 87.8581 79.9883 86.7475 78.5678C85.6892 77.2262 82.7302 75.9174 81.001 75.6412C82.8792 74.76 85.4432 73.9905 86.2183 71.9649L86.2258 71.9583Z" fill="white"/>
<path d="M198.219 123.931C199.424 120.763 199.709 118.198 200.703 114C201.734 117.672 202.082 121.706 204.082 124.522C206.343 127.69 210.84 129.005 214.629 129.367C211.188 130.058 207.225 129.74 204.927 132.261C202.231 135.209 202.244 140.164 202.07 144C201.945 141.095 200.939 137.314 199.088 134.946C197.324 132.71 192.393 130.529 189.511 130.069C192.641 128.6 196.914 127.318 198.206 123.942L198.219 123.931Z" fill="white"/>
</svg>
