<svg width="275" height="272" viewBox="0 0 275 272" fill="none" xmlns="http://www.w3.org/2000/svg">
<path d="M70.6672 104.931C71.8665 101.763 72.1508 99.198 73.14 95C74.1662 98.6719 74.5124 102.706 76.503 105.522C78.7532 108.69 83.229 110.005 87 110.367C83.5752 111.058 79.6311 110.74 77.3437 113.261C74.6607 116.209 74.6731 121.164 74.5 125C74.3764 122.095 73.3749 118.314 71.5326 115.946C69.777 113.71 64.8684 111.529 62 111.069C65.1157 109.6 69.3689 108.318 70.6548 104.942L70.6672 104.931Z" fill="white"/>
<path d="M192.587 74.6134C193.499 72.1849 193.715 70.2185 194.466 67C195.246 69.8151 195.509 72.9076 197.022 75.0672C198.732 77.4958 202.134 78.5042 205 78.7815C202.397 79.3109 199.4 79.0672 197.661 81C195.622 83.2605 195.632 87.0588 195.5 90C195.406 87.7731 194.645 84.874 193.245 83.0588C191.91 81.3445 188.18 79.6723 186 79.3193C188.368 78.1933 191.6 77.2101 192.578 74.6218L192.587 74.6134Z" fill="white"/>
<path d="M62 167C83.9434 167 65.2894 167 87.5 167C95.8242 167 113.863 167 122.5 167C131.137 167 107.923 167 112.5 167" stroke="#8BC3F5" stroke-width="4" stroke-linecap="round" stroke-linejoin="round"/>
<path d="M145 167C166.943 167 153.29 167 175.5 167C183.825 167 201.863 167 210.5 167C219.138 167 195.923 167 200.5 167" stroke="#8BC3F5" stroke-width="4" stroke-linecap="round" stroke-linejoin="round"/>
<path d="M143.389 187.18C147.884 194.325 142.89 203 135.202 203C127.514 203 122.915 192.339 128.408 185.649C133.336 177.155 128.696 163.805 131.838 135.89C135.202 106 139.483 92.4829 149.47 70.0285C155.11 57.3478 162.952 46.0437 163.952 47.0642C164.951 48.0846 150.247 73.6013 142.479 114.426C137.187 142.237 138.396 163.195 138.396 172.381C138.396 178.834 139.537 181.057 143.389 187.18Z" stroke="#8BC3F5" stroke-width="4" stroke-linecap="round" stroke-linejoin="round"/>
<path d="M107.5 174C100.338 174 78.0406 172.081 73.5631 176.824C65.8923 184.949 70.8771 220.335 85.9155 221.699C100.687 224.608 148.109 227.379 183.265 221.699C206.968 217.87 206.843 192.45 203.234 182.738C202.297 180.215 199.978 178.619 197.345 178.062C191.495 176.824 181.728 176.824 166.487 176.824C147.239 176.824 145.449 176.824 145.001 179.317C144.554 181.811 150.82 188.458 151.268 194.276C151.716 200.093 146.61 204.507 139 207C131.39 209.493 124.633 203.648 121.5 197C118.367 190.352 125.052 180.563 125.5 176.824C125.948 173.084 116.452 174 107.5 174Z" fill="#FFE8D3"/>
</svg>
