<svg width="275" height="272" viewBox="0 0 275 272" fill="none" xmlns="http://www.w3.org/2000/svg">
<path d="M141.188 175.992C135.588 176.261 127.025 170.089 120.368 163.766C118.177 161.685 116.333 159.263 114.839 156.636C109.764 147.72 107.893 141.478 107.967 129.58C107.989 126.089 107.207 124.234 109.645 121.736C121.815 109.267 145.842 101.682 159.384 112.645C164.336 116.654 168.195 121.937 169.499 129C172.066 136.962 169.314 146.832 164.6 157.168C163.567 159.435 162.289 161.588 160.722 163.524C153.616 172.307 147.115 175.707 141.188 175.992Z" fill="#FFE8D3"/>
<path d="M176.385 135.127C176.385 132.167 174.668 124.472 167.797 117.368C159.209 108.488 154.663 107.183 149.105 102.743C144.66 99.1911 141.359 93.2541 140.265 90.7295C140.181 94.4728 138.345 103.213 131.677 108.227C123.341 114.495 117.026 118.935 113.49 123.636C110.661 127.397 108.27 132.167 107.428 134.082" stroke="#8BC3F5" stroke-width="4" stroke-linecap="round" stroke-linejoin="round"/>
<path d="M108.552 134.183C107.64 140.225 110.308 154.71 114.569 160.041C121.829 169.123 127.387 173.936 133.716 177.103C138.793 179.644 145.477 180.954 151.521 177.103C158.633 172.571 163.954 169.402 169.274 160.041C172.219 154.861 175.407 142.98 176.386 134.183" stroke="#8BC3F5" stroke-width="4" stroke-linecap="round" stroke-linejoin="round"/>
<path d="M106.665 133.379C103.105 125.125 99.8997 97.9756 114.425 83.3798C132.581 65.1351 159.014 70.0872 171.563 87.2894C181.602 101.051 180.284 122.539 176.016 135.127" stroke="#8BC3F5" stroke-width="4" stroke-linecap="round" stroke-linejoin="round"/>
<path d="M127.158 74.671C125.039 72.5243 121.597 66.6745 124.774 60.4491C128.747 52.6673 148.078 47.8372 155.492 56.9607C161.424 64.2595 157.081 71.272 153.903 74.1343" stroke="#8BC3F5" stroke-width="4" stroke-linecap="round" stroke-linejoin="round"/>
<path d="M125.085 171.022C125.347 172.481 126.591 173.774 126.882 175.258C127.113 176.441 127.265 177.555 127.265 178.782C127.265 180.868 127.026 182.782 126.902 184.854C126.674 188.663 124.703 191.628 122.542 194.638C120.18 197.472 117.347 202.667 108.845 206.918C102.044 210.319 92.7863 212.114 89.0078 212.586" stroke="#8BC3F5" stroke-width="4" stroke-linecap="round" stroke-linejoin="round"/>
<path d="M159.8 171.759C159.8 180.261 161.477 188.413 164.051 192.541C167.884 198.69 172.552 207.655 208.712 211.414" stroke="#8BC3F5" stroke-width="4" stroke-linecap="round" stroke-linejoin="round"/>
<path d="M74.6672 128.931C75.8665 125.763 76.1508 123.198 77.14 119C78.1662 122.672 78.5124 126.706 80.503 129.522C82.7532 132.69 87.229 134.005 91 134.367C87.5752 135.058 83.6311 134.74 81.3437 137.261C78.6607 140.209 78.6731 145.164 78.5 149C78.3764 146.095 77.3749 142.314 75.5326 139.946C73.777 137.71 68.8684 135.529 66 135.069C69.1157 133.6 73.3689 132.318 74.6548 128.942L74.6672 128.931Z" fill="white"/>
<path d="M196.587 98.6134C197.499 96.1849 197.715 94.2185 198.466 91C199.246 93.8151 199.509 96.9076 201.022 99.0672C202.732 101.496 206.134 102.504 209 102.782C206.397 103.311 203.4 103.067 201.661 105C199.622 107.261 199.632 111.059 199.5 114C199.406 111.773 198.645 108.874 197.245 107.059C195.91 105.345 192.18 103.672 190 103.319C192.368 102.193 195.6 101.21 196.578 98.6218L196.587 98.6134Z" fill="white"/>
</svg>
