<svg width="215" height="185" viewBox="0 0 215 185" fill="none" xmlns="http://www.w3.org/2000/svg">
<path d="M107.837 66.1009C101.454 53.2355 90.5696 48.6429 82.282 54.5172C75.3216 60.8172 77.3371 72.4334 90.5738 82.1064C93.3888 84.1635 96.4048 86.1043 98.2705 89.0497C104.294 98.5595 98.9695 107.377 108.373 110.397C119.106 113.844 129.412 109.275 128.717 96.2502C128.377 89.8771 121.596 87.1656 112.556 74.6994C110.634 72.0489 109.293 69.0338 107.837 66.1009Z" fill="white"/>
<path d="M119.219 50.0354C130.088 51.9071 147.985 38.3495 153.011 33.6636C161.193 27.544 164.473 20.5224 175.961 11.8419C187.449 3.16148 200.901 36.7209 186.436 43.497C176.87 47.9786 167.4 54.0976 163.861 56.5969C159.979 59.1484 151.172 65.6703 146.997 71.3465C141.777 78.4417 144.576 84.0485 137.037 91.0773C129.497 98.1061 125.106 100.764 118.947 92.0422C112.789 83.3208 116.491 79.5614 110.912 73.2715C105.222 65.5437 103 67.9314 101.195 63.5125C100.272 61.2543 99.826 58.6404 100.882 56.4413C103.151 51.7157 110.422 48.5209 119.219 50.0354Z" fill="#FFE8D3"/>
<path d="M85.2713 122.597C74.399 120.696 61.6525 129.583 56.6382 134.264C48.4725 140.373 51.0474 140.067 39.5822 148.733C28.1169 157.399 8.80274 136.81 19.4513 129.209C30.0982 121.607 37.2656 117.502 40.7984 115.007C44.6731 112.461 55.847 104.084 60.0081 98.4087C65.2095 91.315 67.7086 82.6597 71.917 76.7911C76.1254 70.9224 81.9792 67.1743 88.1581 75.9247C93.2041 83.0706 98.8213 76.8238 103.687 83.7141C111.209 94.3665 97.7618 94.5945 108.42 103.442C113.535 107.688 97.4363 123.5 85.2713 122.597Z" fill="#FFE8D3"/>
<path d="M193.014 38.9947C183.345 44.0219 164.562 54.8807 161.239 57.1881C157.597 59.5427 149.319 65.5909 145.38 70.8651C140.457 77.4578 143.448 85.688 136.36 92.2053C129.273 98.7225 120.11 99.8645 115.142 94.1411C110.672 85.3165 113.213 79.2528 108.034 73.3297C102.865 67.4161 96.226 68.5942 93.2218 62.756C89.769 50.5815 105.826 42.8824 118.508 45.1599C128.652 46.9799 140.642 38.7442 145.373 34.3923C153.059 28.7274 164.448 17.9013 175.243 9.85998" stroke="#8BC3F5" stroke-width="4" stroke-linecap="round" stroke-linejoin="round"/>
<path d="M17.6164 123.096C29.4057 116.378 40.2753 108.996 43.5886 106.689C47.2309 104.335 55.48 98.3079 59.4087 93.0343C64.312 86.4427 62.5793 78.6376 69.6569 72.1209C75.9808 65.4133 84.9783 63.0544 90.6916 71.27C95.3602 77.984 100.079 74.5271 103.171 79.175C109.273 87.5306 100.964 92.0633 111.574 101.284C118.191 107.231 99.5037 120.998 86.337 118.847C76.1906 116.997 64.2205 125.222 59.4986 129.563C51.8324 135.217 46.7676 141.606 36.0023 149.626" stroke="#8BC3F5" stroke-width="4" stroke-linecap="round" stroke-linejoin="round"/>
<path d="M59.4235 32.5328C58.481 30.3635 55.6568 29.3537 53.4017 30.3822C52.1029 30.9755 50.8712 32.6745 50.7893 34.0783C50.7475 34.7966 50.9094 35.4693 51.2212 36.0876C51.7743 37.1867 53.2083 38.9399 54.5091 39.1224C55.9762 39.3273 57.545 38.8681 58.5345 37.6472C59.6971 36.2118 60.1262 34.1484 59.4249 32.5312L59.4235 32.5328Z" fill="white"/>
<path d="M160.583 85.8281C161.364 84.3884 160.871 82.356 159.529 81.4955C158.756 81.0004 157.437 81.0031 156.683 81.5396C156.297 81.8143 156.008 82.1862 155.801 82.6213C155.432 83.3939 155.043 84.9413 155.416 85.7599C155.837 86.683 156.638 87.388 157.624 87.4457C158.783 87.5131 160.002 86.9007 160.585 85.8282L160.583 85.8281Z" fill="white"/>
<path d="M181.97 82.2257C180.992 80.1383 178.251 79.0835 176.127 79.979C174.903 80.4956 173.782 82.0618 173.753 83.3883C173.738 84.0672 173.916 84.7099 174.237 85.3064C174.805 86.3666 176.24 88.077 177.492 88.2951C178.905 88.5404 180.391 88.1601 181.297 87.0384C182.36 85.7195 182.7 83.7802 181.971 82.2241L181.97 82.2257Z" fill="white"/>
</svg>
