<svg width="275" height="272" viewBox="0 0 275 272" fill="none" xmlns="http://www.w3.org/2000/svg">
<path d="M112.857 108.649C121.395 104.097 124.952 92.7631 126.375 84.4644C124.952 77.3513 154.834 78.0626 161.949 81.6192C169.064 85.1758 161.949 96.5568 174.756 103.67C187.562 110.783 193.254 110.783 185.428 147.06C177.602 183.337 157.68 190.45 142.739 191.873C127.798 193.296 116.414 182.626 105.031 166.977C93.6469 151.328 94.3584 118.608 95.7814 113.628C97.2043 108.649 102.185 114.34 112.857 108.649Z" fill="#FFE7EA"/>
<path d="M157.258 83.355C150.253 83.355 122.002 82.5562 114.623 83.355C112.983 84.9528 114.623 93.7402 106.423 100.93C98.2241 108.12 90.0249 104.125 90.0249 107.321C90.0249 110.516 85.9253 132.884 94.1245 157.649C102.324 182.414 127.741 192 135.121 192C142.5 192 153.953 191.723 169.557 172.029C185.751 151.59 186.776 107.321 183.496 107.321C180.216 107.321 174.272 106.854 166.278 100.93C159.182 95.6717 161.973 83.355 157.258 83.355Z" stroke="#8BC3F5" stroke-width="4" stroke-linecap="round" stroke-linejoin="round"/>
<path d="M158 137.82C158 148.895 147.443 159.272 136.406 157.873C125.37 156.474 114.131 149.245 115.053 137.82C116.013 125.928 124.89 115.927 136.406 117.093C147.922 118.259 158 125.254 158 137.82Z" stroke="#8BC3F5" stroke-width="4" stroke-linecap="round" stroke-linejoin="round"/>
<path d="M129 138H145" stroke="#8BC3F5" stroke-width="4" stroke-linecap="round" stroke-linejoin="round"/>
<path d="M137 130L137 146" stroke="#8BC3F5" stroke-width="4" stroke-linecap="round" stroke-linejoin="round"/>
<path d="M65.6672 177.931C66.8665 174.763 67.1508 172.198 68.14 168C69.1662 171.672 69.5124 175.706 71.503 178.522C73.7532 181.69 78.229 183.005 82 183.367C78.5752 184.058 74.6311 183.74 72.3437 186.261C69.6607 189.209 69.6731 194.164 69.5 198C69.3764 195.095 68.3749 191.314 66.5326 188.946C64.777 186.71 59.8684 184.529 57 184.069C60.1157 182.6 64.3689 181.318 65.6548 177.942L65.6672 177.931Z" fill="white"/>
<path d="M188.587 70.6134C189.499 68.1849 189.715 66.2185 190.466 63C191.246 65.8151 191.509 68.9076 193.022 71.0672C194.732 73.4958 198.134 74.5042 201 74.7815C198.397 75.3109 195.4 75.0672 193.661 77C191.622 79.2605 191.632 83.0588 191.5 86C191.406 83.7731 190.645 80.874 189.245 79.0588C187.91 77.3445 184.18 75.6723 182 75.3193C184.368 74.1933 187.6 73.2101 188.578 70.6218L188.587 70.6134Z" fill="white"/>
</svg>
