<svg width="275" height="272" viewBox="0 0 275 272" fill="none" xmlns="http://www.w3.org/2000/svg">
<path d="M143.52 98.4481C123.784 97.7999 113.107 97.6129 107.615 100.539C100.615 104.27 115.393 105.21 109.192 125.554C106.191 135.401 95.5822 137.507 101.255 141.536C106.927 145.565 125.741 164.333 130.318 161.894C134.895 159.455 129.526 154.73 132.456 154.879C138.496 155.186 148.981 159.395 158.934 156.048C164.914 154.037 170.865 155.165 171.929 156.175C179.065 162.95 187.758 167.133 188.887 165.943C190.016 164.754 184.13 161.427 183.555 148.218C182.981 135.009 192.041 135.47 193.11 131.962C194.179 128.454 184.477 130.098 176.667 133.084C168.856 136.071 165.536 124.325 163.097 119.748C160.658 115.172 166.852 112.459 160.906 106.813C154.959 101.168 163.257 99.0963 143.52 98.4481Z" fill="#FFE7EA"/>
<path d="M199 131.999C199 166.574 168.31 198.971 136.227 194.603C104.145 190.236 71.4735 167.668 74.1545 131.999C76.9443 94.8734 102.75 63.649 136.227 67.2893C169.705 70.9291 199 92.7692 199 131.999Z" stroke="#BEDFFF" stroke-width="4" stroke-linecap="round" stroke-linejoin="round"/>
<path d="M89.5882 115.981C91.2052 114.569 96.5663 115.998 93.5873 120.374C91.7974 123.004 86.001 119.967 89.5882 115.981Z" fill="#8BC3F5"/>
<path d="M120.59 103.364C126.911 104.329 141.121 108.616 150.18 113.535C164.705 121.422 171.695 131.049 172.603 131.902C173.51 132.756 173.993 131.173 180.781 128.052C186.212 125.555 194.194 126.18 197.506 126.805C192.98 128.886 183.542 135.467 181.993 145.144C180.445 154.822 184.503 164.363 186.726 167.923C183.699 167.001 176.803 164.092 173.43 159.834C169.214 154.513 168.043 150.696 167.296 149.315C166.549 147.934 161.311 154.678 138.28 152.582C116.696 150.617 106.657 145.251 103.986 144.437C101.315 143.623 107.558 151.869 114.927 156.421C121.822 160.681 124.956 160.794 126.144 159.84C127.591 158.678 127.643 156.837 127.431 155.619" stroke="#8BC3F5" stroke-width="4" stroke-linecap="round" stroke-linejoin="round"/>
<path d="M161.773 113.948C162.442 109.812 160.075 100.885 145.258 98.2629C126.735 94.9849 97.9947 98.0605 85.1163 105.379C72.9634 112.284 72.2579 120.395 80.7271 129.486C87.5024 136.758 91.973 139.817 93.3614 140.437C96.0765 139.292 102.167 134.836 104.807 126.173C107.447 117.51 105.819 109.913 104.675 107.197" stroke="#8BC3F5" stroke-width="4" stroke-linecap="round" stroke-linejoin="round"/>
<path d="M95.3575 71.4034C94.4182 69.2412 91.6034 68.2349 89.3558 69.2599C88.0613 69.8512 86.8338 71.5446 86.7521 72.9437C86.7105 73.6596 86.8718 74.33 87.1826 74.9463C87.7339 76.0417 89.1631 77.7891 90.4595 77.971C91.9218 78.1752 93.4853 77.7175 94.4715 76.5007C95.6302 75.0701 96.0579 73.0136 95.3589 71.4017L95.3575 71.4034Z" fill="white"/>
<path d="M152.521 202.919C153.3 201.484 152.807 199.458 151.471 198.601C150.7 198.107 149.385 198.11 148.633 198.645C148.249 198.918 147.961 199.289 147.754 199.723C147.387 200.493 146.999 202.035 147.371 202.851C147.791 203.771 148.589 204.473 149.572 204.531C150.726 204.598 151.942 203.988 152.522 202.919L152.521 202.919Z" fill="white"/>
<path d="M169.838 193.328C168.863 191.248 166.131 190.197 164.014 191.089C162.794 191.604 161.677 193.165 161.648 194.487C161.633 195.164 161.811 195.804 162.13 196.399C162.697 197.455 164.127 199.16 165.375 199.378C166.783 199.622 168.264 199.243 169.167 198.125C170.227 196.811 170.565 194.878 169.839 193.327L169.838 193.328Z" fill="white"/>
</svg>
