<svg width="215" height="185" viewBox="0 0 215 185" fill="none" xmlns="http://www.w3.org/2000/svg">
<path d="M128.116 56.0386C119.858 70.6162 115.503 73.4281 105.395 69.657C97.1862 66.5945 93.4885 58.3264 96.9589 49.1119C100.429 39.8973 105.856 28.6297 108.088 22.7064C110.319 16.7835 114.967 6.50594 128.08 11.5547C141.047 16.5477 141.931 26.3619 138.957 34.2601C135.982 42.1583 136.101 41.9421 128.116 56.0386Z" fill="#F2E1F4"/>
<path d="M129.123 53.3785C122.215 67.8429 114.781 76.924 100.823 71.346C91.8627 68.0032 88.0315 58.7943 91.4569 49.6992C94.8822 40.6041 103.934 16.5665 106.137 10.72C108.34 4.87388 118.552 2.86857 127.885 6.61646C140.883 11.8363 142.212 18.6222 139.276 26.418C136.34 34.2138 136.03 38.9141 129.123 53.3785Z" stroke="#8BC3F5" stroke-width="4" stroke-linecap="round" stroke-linejoin="round"/>
<path d="M101.68 22.549C99.2919 22.2569 92.9465 25.041 86.673 38.5143C80.3995 51.9876 73.7144 70.5938 67.6006 84.5C61.4868 98.4062 54.0369 116 45.9994 130.174" stroke="#8BC3F5" stroke-width="4" stroke-linecap="round" stroke-linejoin="round"/>
<path d="M136.139 36.4727C138.271 38.7044 140.723 47.7953 133.478 66.305C126.233 84.8148 110.304 126 101.763 154" stroke="#8BC3F5" stroke-width="4" stroke-linecap="round" stroke-linejoin="round"/>
<path d="M82.7422 88.8623C84.9804 89.3105 89.1275 90.3238 94.5438 92.6619C99.9601 94.9999 102.461 96.5975 104.182 98.1172" stroke="#BEDFFF" stroke-width="3" stroke-linecap="round" stroke-linejoin="round"/>
<path d="M79.5 95.8135C80.6415 97.0802 84.1353 100.228 88.9779 102.685C93.8206 105.143 99.457 106.059 101.67 106.21" stroke="#BEDFFF" stroke-width="3" stroke-linecap="round" stroke-linejoin="round"/>
<path d="M51.2248 12.9583C51.9478 11.0577 52.1192 9.51882 52.7155 7C53.3341 9.20314 53.5428 11.6233 54.7428 13.3135C56.0993 15.2141 58.7975 16.0033 61.0708 16.2203C59.0062 16.6346 56.6285 16.4439 55.2497 17.9565C53.6323 19.7256 53.6397 22.6982 53.5354 25C53.4608 23.2572 52.8571 20.9883 51.7466 19.5678C50.6882 18.2262 47.7292 16.9174 46 16.6412C47.8783 15.76 50.4422 14.9905 51.2174 12.9649L51.2248 12.9583Z" fill="white"/>
<path d="M163.218 64.9306C164.423 61.7629 164.708 59.198 165.702 55C166.733 58.6719 167.081 62.7055 169.081 65.5225C171.342 68.6902 175.839 70.0055 179.628 70.3672C176.187 71.0577 172.224 70.7399 169.926 73.2609C167.23 76.2094 167.243 81.1637 167.069 85C166.945 82.0954 165.938 78.3138 164.087 75.9463C162.323 73.7103 157.392 71.529 154.51 71.0687C157.64 69.5999 161.913 68.3175 163.205 64.9415L163.218 64.9306Z" fill="white"/>
</svg>
