<svg width="215" height="185" viewBox="0 0 215 185" fill="none" xmlns="http://www.w3.org/2000/svg">
<path d="M40.6672 60.9306C41.8665 57.7629 42.1508 55.198 43.14 51C44.1662 54.6719 44.5124 58.7055 46.503 61.5225C48.7532 64.6902 53.229 66.0055 57 66.3672C53.5752 67.0577 49.6311 66.7399 47.3437 69.2609C44.6607 72.2094 44.6731 77.1637 44.5 81C44.3764 78.0954 43.3749 74.3138 41.5326 71.9463C39.777 69.7103 34.8684 67.529 32 67.0687C35.1157 65.5999 39.3689 64.3175 40.6548 60.9415L40.6672 60.9306Z" fill="white"/>
<path d="M162.587 30.6134C163.499 28.1849 163.715 26.2185 164.466 23C165.246 25.8151 165.509 28.9076 167.022 31.0672C168.732 33.4958 172.134 34.5042 175 34.7815C172.397 35.3109 169.4 35.0672 167.661 37C165.622 39.2605 165.632 43.0588 165.5 46C165.406 43.7731 164.645 40.874 163.245 39.0588C161.91 37.3445 158.18 35.6723 156 35.3193C158.368 34.1933 161.6 33.2101 162.578 30.6218L162.587 30.6134Z" fill="white"/>
<path d="M32 123C53.9434 123 35.2894 123 57.5 123C65.8242 123 83.8627 123 92.5 123C101.137 123 77.9227 123 82.5 123" stroke="#8BC3F5" stroke-width="4" stroke-linecap="round" stroke-linejoin="round"/>
<path d="M115 123C136.943 123 123.29 123 145.5 123C153.825 123 171.863 123 180.5 123C189.138 123 165.923 123 170.5 123" stroke="#8BC3F5" stroke-width="4" stroke-linecap="round" stroke-linejoin="round"/>
<path d="M113.389 143.18C117.884 150.325 112.89 159 105.202 159C97.5144 159 92.9154 148.339 98.4084 141.649C103.336 133.155 98.6964 119.805 101.838 91.89C105.202 62 109.483 48.4829 119.47 26.0285C125.11 13.3478 132.952 2.04374 133.952 3.06416C134.951 4.08461 120.247 29.6013 112.479 70.4258C107.187 98.2368 108.396 119.195 108.396 128.381C108.396 134.834 109.537 137.057 113.389 143.18Z" stroke="#8BC3F5" stroke-width="4" stroke-linecap="round" stroke-linejoin="round"/>
<path d="M77.5 130C70.3381 130 48.0406 128.081 43.5631 132.824C35.8923 140.949 40.8771 176.335 55.9155 177.699C70.687 180.608 118.109 183.379 153.265 177.699C176.968 173.87 176.843 148.45 173.234 138.738C172.297 136.215 169.978 134.619 167.345 134.062C161.495 132.824 151.728 132.824 136.487 132.824C117.239 132.824 115.449 132.824 115.001 135.317C114.554 137.811 120.82 144.458 121.268 150.276C121.716 156.093 116.61 160.507 109 163C101.39 165.493 94.6333 159.648 91.5 153C88.3667 146.352 95.0524 136.563 95.5 132.824C95.9476 129.084 86.4524 130 77.5 130Z" fill="#FFE8D3"/>
</svg>
