<svg width="215" height="185" viewBox="0 0 215 185" fill="none" xmlns="http://www.w3.org/2000/svg">
<path d="M110.188 127.992C104.588 128.261 96.0255 122.089 89.3685 115.766C87.1774 113.685 85.3335 111.263 83.8387 108.636C78.7642 99.7203 76.8929 93.4777 76.9669 81.5796C76.9887 78.0894 76.2072 76.2341 78.6451 73.7363C90.8148 61.2674 114.842 53.6825 128.384 64.6455C133.336 68.6543 137.195 73.9372 138.499 81C141.066 88.9617 138.314 98.8324 133.6 109.168C132.567 111.435 131.289 113.588 129.722 115.524C122.616 124.307 116.115 127.707 110.188 127.992Z" fill="#FFE8D3"/>
<path d="M145.385 87.1269C145.385 84.1671 143.668 76.4715 136.797 69.368C128.209 60.4885 123.663 59.1827 118.105 54.7429C113.66 51.1911 110.359 45.2541 109.265 42.7295C109.181 46.4728 107.345 55.213 100.677 60.2273C92.3411 66.4952 86.0262 70.9349 82.49 75.6358C79.6609 79.3966 77.2697 84.1671 76.4277 86.0823" stroke="#8BC3F5" stroke-width="4" stroke-linecap="round" stroke-linejoin="round"/>
<path d="M77.5516 86.1826C76.6398 92.2252 79.3075 106.71 83.5692 112.041C90.8285 121.123 96.3875 125.936 102.716 129.103C107.793 131.644 114.477 132.954 120.521 129.103C127.633 124.571 132.954 121.402 138.274 112.041C141.219 106.861 144.407 94.9799 145.386 86.1826" stroke="#8BC3F5" stroke-width="4" stroke-linecap="round" stroke-linejoin="round"/>
<path d="M75.6646 85.3785C72.1046 77.125 68.8997 49.9756 83.4246 35.3798C101.581 17.1351 128.014 22.0872 140.563 39.2894C150.602 53.0511 149.284 74.5388 145.016 87.1269" stroke="#8BC3F5" stroke-width="4" stroke-linecap="round" stroke-linejoin="round"/>
<path d="M96.1577 26.671C94.0392 24.5243 90.5967 18.6745 93.7744 12.4491C97.7466 4.66727 117.078 -0.162828 124.492 8.96068C130.424 16.2595 126.081 23.272 122.903 26.1343" stroke="#8BC3F5" stroke-width="4" stroke-linecap="round" stroke-linejoin="round"/>
<path d="M94.0853 123.022C94.347 124.481 95.591 125.774 95.8817 127.258C96.1133 128.441 96.2652 129.555 96.2652 130.782C96.2652 132.868 96.0259 134.782 95.9019 136.854C95.674 140.663 93.703 143.628 91.542 146.638C89.1805 149.472 86.3466 154.667 77.845 158.918C71.0437 162.319 61.7863 164.114 58.0078 164.586" stroke="#8BC3F5" stroke-width="4" stroke-linecap="round" stroke-linejoin="round"/>
<path d="M128.8 123.759C128.8 132.261 130.477 140.413 133.051 144.541C136.884 150.69 141.552 159.655 177.712 163.414" stroke="#8BC3F5" stroke-width="4" stroke-linecap="round" stroke-linejoin="round"/>
<path d="M43.6672 80.9306C44.8665 77.7629 45.1508 75.198 46.14 71C47.1662 74.6719 47.5124 78.7055 49.503 81.5225C51.7532 84.6902 56.229 86.0055 60 86.3672C56.5752 87.0577 52.6311 86.7399 50.3437 89.2609C47.6607 92.2094 47.6731 97.1637 47.5 101C47.3764 98.0954 46.3749 94.3138 44.5326 91.9463C42.777 89.7103 37.8684 87.529 35 87.0687C38.1157 85.5999 42.3689 84.3175 43.6548 80.9415L43.6672 80.9306Z" fill="white"/>
<path d="M165.587 50.6134C166.499 48.1849 166.715 46.2185 167.466 43C168.246 45.8151 168.509 48.9076 170.022 51.0672C171.732 53.4958 175.134 54.5042 178 54.7815C175.397 55.3109 172.4 55.0672 170.661 57C168.622 59.2605 168.632 63.0588 168.5 66C168.406 63.7731 167.645 60.874 166.245 59.0588C164.91 57.3445 161.18 55.6723 159 55.3193C161.368 54.1933 164.6 53.2101 165.578 50.6218L165.587 50.6134Z" fill="white"/>
</svg>
