<svg width="275" height="272" viewBox="0 0 275 272" fill="none" xmlns="http://www.w3.org/2000/svg">
<g clip-path="url(#clip0_339_41251)">
<path d="M69.0092 172.17C67.0892 171.16 65.8892 177.36 65.9992 175.13C70.7192 165.39 75.4992 159.63 87.3392 152.64C88.7692 151.68 93.0592 153.89 94.7092 153.92C97.9392 153.98 101.249 152.89 104.409 152.21C110.349 150.93 116.529 149.54 121.289 145.77C127.789 140.62 130.409 132.06 132.029 123.93C132.329 122.42 132.819 120.65 134.269 120.14C135.849 119.59 137.389 120.88 138.769 121.83C143.289 124.92 149.209 124.67 154.669 124.3C160.859 123.88 167.049 123.46 173.229 123.05C178.119 122.72 183.099 122.4 187.889 123.49C197.859 125.78 198.859 130.24 196.199 138.76C193.909 146.09 190.939 153.18 187.049 159.81C179.949 171.92 169.249 183.83 154.859 186.64C142.549 189.05 130.019 184.86 118.179 180.73C110.029 177.89 102.999 175.22 95.6792 170.77C91.1992 168.05 86.7892 168.22 82.4392 170.62C78.4892 172.79 76.0692 173.16 71.2492 172.71C70.5592 172.65 69.8592 172.57 69.2292 172.29C69.1492 172.25 69.0692 172.22 68.9992 172.19L69.0092 172.17Z" fill="#FFE7EA"/>
</g>
<path d="M119.166 56.2027C116.972 61.9773 115.01 70.0424 119.743 78.6736C126.59 91.1594 140.694 95.218 130.457 122.166C122.779 142.377 113.361 149.008 97.0832 149.136C77.1997 149.291 63.8778 164.054 60.0494 185.728" stroke="#8BC3F5" stroke-width="4" stroke-linecap="round" stroke-linejoin="round"/>
<path d="M131.922 53.5645C131.153 64.2856 137.394 76.3424 141.727 77.9887C152.113 81.9341 156.053 72.5342 176.053 79.7902C196.052 87.0463 205.362 110.515 195.78 135.738C186.198 160.962 175.998 179.114 150.303 185.873C117.919 191.548 112.037 173.538 94.5789 170.21C80.008 167.979 76.4068 171.436 70.9226 185.873" stroke="#8BC3F5" stroke-width="4" stroke-linecap="round" stroke-linejoin="round"/>
<path d="M202.587 172.282C203.499 169.959 203.715 168.079 204.466 165C205.246 167.693 205.509 170.651 207.022 172.716C208.732 175.039 212.134 176.004 215 176.269C212.397 176.776 209.4 176.543 207.661 178.391C205.622 180.554 205.632 184.187 205.5 187C205.406 184.87 204.645 182.097 203.245 180.361C201.91 178.721 198.18 177.121 196 176.784C198.368 175.707 201.6 174.766 202.578 172.29L202.587 172.282Z" fill="white"/>
<path d="M100.587 96.6134C101.499 94.1849 101.715 92.2185 102.466 89C103.246 91.8151 103.509 94.9076 105.022 97.0672C106.732 99.4958 110.134 100.504 113 100.782C110.397 101.311 107.4 101.067 105.661 103C103.622 105.261 103.632 109.059 103.5 112C103.406 109.773 102.645 106.874 101.245 105.059C99.9105 103.345 96.18 101.672 94 101.319C96.368 100.193 99.6004 99.2101 100.578 96.6218L100.587 96.6134Z" fill="white"/>
<defs>
<clipPath id="clip0_339_41251">
<rect width="131.48" height="67.33" fill="white" transform="translate(66 120)"/>
</clipPath>
</defs>
</svg>
