<svg width="215" height="185" viewBox="0 0 215 185" fill="none" xmlns="http://www.w3.org/2000/svg">
<g clip-path="url(#clip0_339_41185)">
<path d="M43.0092 122.17C41.0892 121.16 39.8892 127.36 39.9992 125.13C44.7192 115.39 49.4992 109.63 61.3392 102.64C62.7692 101.68 67.0592 103.89 68.7092 103.92C71.9392 103.98 75.2492 102.89 78.4092 102.21C84.3492 100.93 90.5292 99.5396 95.2892 95.7696C101.789 90.6196 104.409 82.0596 106.029 73.9296C106.329 72.4196 106.819 70.6496 108.269 70.1396C109.849 69.5896 111.389 70.8796 112.769 71.8296C117.289 74.9196 123.209 74.6696 128.669 74.2996C134.859 73.8796 141.049 73.4596 147.229 73.0496C152.119 72.7196 157.099 72.3996 161.889 73.4896C171.859 75.7796 172.859 80.2396 170.199 88.7596C167.909 96.0896 164.939 103.18 161.049 109.81C153.949 121.92 143.249 133.83 128.859 136.64C116.549 139.05 104.019 134.86 92.1792 130.73C84.0292 127.89 76.9992 125.22 69.6792 120.77C65.1992 118.05 60.7892 118.22 56.4392 120.62C52.4892 122.79 50.0692 123.16 45.2492 122.71C44.5592 122.65 43.8592 122.57 43.2292 122.29C43.1492 122.25 43.0692 122.22 42.9992 122.19L43.0092 122.17Z" fill="#FFE8D3"/>
</g>
<path d="M93.1659 6.20269C90.9722 11.9773 89.0097 20.0424 93.7428 28.6736C100.59 41.1594 114.694 45.218 104.457 72.1661C96.7786 92.3772 87.3612 99.0082 71.0832 99.1357C51.1997 99.2914 37.8778 114.054 34.0494 135.728" stroke="#8BC3F5" stroke-width="4" stroke-linecap="round" stroke-linejoin="round"/>
<path d="M105.922 3.56455C105.153 14.2856 111.394 26.3424 115.727 27.9887C126.113 31.9341 130.053 22.5342 150.053 29.7902C170.052 37.0463 179.362 60.5149 169.78 85.7384C160.198 110.962 149.998 129.114 124.303 135.873C91.9189 141.548 86.0371 123.538 68.5789 120.21C54.008 117.979 50.4068 121.436 44.9226 135.873" stroke="#8BC3F5" stroke-width="4" stroke-linecap="round" stroke-linejoin="round"/>
<path d="M166.587 122.282C167.499 119.959 167.715 118.079 168.466 115C169.246 117.693 169.509 120.651 171.022 122.716C172.732 125.039 176.134 126.004 179 126.269C176.397 126.776 173.4 126.543 171.661 128.391C169.622 130.554 169.632 134.187 169.5 137C169.406 134.87 168.645 132.097 167.245 130.361C165.91 128.721 162.18 127.121 160 126.784C162.368 125.707 165.6 124.766 166.578 122.29L166.587 122.282Z" fill="white"/>
<path d="M64.587 46.6134C65.4985 44.1849 65.7146 42.2185 66.4664 39C67.2463 41.8151 67.5094 44.9076 69.0223 47.0672C70.7324 49.4958 74.134 50.5042 77 50.7815C74.3971 51.3109 71.3996 51.0672 69.6612 53C67.6222 55.2605 67.6316 59.0588 67.5 62C67.406 59.7731 66.6449 56.874 65.2448 55.0588C63.9105 53.3445 60.18 51.6723 58 51.3193C60.368 50.1933 63.6004 49.2101 64.5776 46.6218L64.587 46.6134Z" fill="white"/>
<defs>
<clipPath id="clip0_339_41185">
<rect width="131.48" height="67.33" fill="white" transform="translate(40 70)"/>
</clipPath>
</defs>
</svg>
