<svg width="275" height="272" viewBox="0 0 275 272" fill="none" xmlns="http://www.w3.org/2000/svg">
<path d="M149.06 174.75C138.686 181.039 126.183 179.855 114.231 174.421C104.678 168.482 97.248 158.734 98.0609 141.675C99.1059 119.743 127.01 84.1119 130.566 84.1119C130.566 84.1119 130.668 83.994 130.668 84.0002C133.627 84.1119 152.514 108.984 158.234 123.169C164.944 139.817 166.709 164.057 149.06 174.75Z" fill="#FFE8D3"/>
<path d="M155.93 179.693C145.501 186.144 130.605 186.66 120.916 179.356C111.764 172.459 104.986 160.879 105.522 149.351C106.652 125.161 122.288 104.725 137.338 86.7193C137.338 86.7193 137.44 86.5984 137.44 86.6047C148.635 97.5671 159.402 112.232 165.152 126.783C171.898 143.86 173.673 168.724 155.93 179.693Z" stroke="#8BC3F5" stroke-width="4" stroke-linecap="round" stroke-linejoin="round"/>
<path d="M142.286 114.772C142.286 114.772 146.459 118.945 148.728 122.802C150.175 124.897 151.348 127.077 152.441 129.361C153.534 131.647 154.365 134.667 155.158 137.304" stroke="#8BC3F5" stroke-width="4" stroke-linecap="round" stroke-linejoin="round"/>
<path d="M81.6672 81.9306C82.8665 78.7629 83.1508 76.198 84.14 72C85.1662 75.6719 85.5124 79.7055 87.503 82.5225C89.7532 85.6902 94.229 87.0055 98 87.3672C94.5752 88.0577 90.6311 87.7399 88.3437 90.2609C85.6607 93.2094 85.6731 98.1637 85.5 102C85.3764 99.0954 84.3749 95.3138 82.5326 92.9463C80.777 90.7103 75.8684 88.529 73 88.0687C76.1157 86.5999 80.3689 85.3175 81.6548 81.9415L81.6672 81.9306Z" fill="white"/>
<path d="M196.587 175.613C197.499 173.185 197.715 171.218 198.466 168C199.246 170.815 199.509 173.908 201.022 176.067C202.732 178.496 206.134 179.504 209 179.782C206.397 180.311 203.4 180.067 201.661 182C199.622 184.261 199.632 188.059 199.5 191C199.406 188.773 198.645 185.874 197.245 184.059C195.91 182.345 192.18 180.672 190 180.319C192.368 179.193 195.6 178.21 196.578 175.622L196.587 175.613Z" fill="white"/>
</svg>
