<svg width="275" height="272" viewBox="0 0 275 272" fill="none" xmlns="http://www.w3.org/2000/svg">
<path d="M96.2002 159.106C106.541 158.337 127.807 135.46 131.324 130.041C137.394 122.595 147.322 109.576 155.824 99.041C159.091 94.9929 155.717 81.9394 165.325 79.5401C173.622 78.5631 173.284 82.5987 181.824 89.5409C187.874 94.4592 194.559 89.7111 198.244 97.4087C200.238 101.574 199.293 106.559 195.221 108.737C189.851 111.608 180.955 114.893 172.824 122.041C165.12 128.308 141.074 151.836 138.415 154.922C135.456 158.134 128.908 166.089 126.392 172.217C123.247 179.878 127.078 184.355 121.801 192.484C116.525 200.612 113.125 204.037 105.521 197.484C97.9165 190.932 100.437 186.659 93.916 182.193C87.0814 176.536 85.5335 179.037 82.9608 175.68C81.4768 173.744 80.4196 171.286 80.9802 168.912C82.1013 164.164 87.9547 159.719 96.2002 159.106Z" fill="#FFE8D3"/>
<path d="M156.658 132.465C149.411 140.433 138.662 153.196 136.157 156.058C133.371 159.035 127.197 166.438 124.806 172.146C121.817 179.281 126.42 186.107 121.439 193.666C116.459 201.225 108.361 204.354 102.526 200.265C96.4389 193.234 97.3747 187.124 91.3014 182.901C85.2399 178.684 79.4525 181.271 75.3823 176.63C69.4597 166.311 82.3529 155.631 94.4389 154.82C104.107 154.169 113.168 143.926 116.492 138.879C122.212 131.961 131.653 120.25 139.667 110.456" stroke="#8BC3F5" stroke-width="4" stroke-linecap="round" stroke-linejoin="round"/>
<path d="M101.859 80.9444C100.92 78.7823 98.1054 77.7759 95.8577 78.8009C94.5633 79.3922 93.3357 81.0856 93.2541 82.4847C93.2124 83.2006 93.3737 83.871 93.6846 84.4873C94.2358 85.5827 95.6651 87.3301 96.9614 87.512C98.4237 87.7163 99.9873 87.2585 100.973 86.0418C102.132 84.6111 102.56 82.5546 101.861 80.9427L101.859 80.9444Z" fill="white"/>
<path d="M172.345 176.46C173.124 175.025 172.632 172.999 171.295 172.142C170.524 171.648 169.209 171.651 168.458 172.186C168.073 172.459 167.785 172.83 167.579 173.264C167.211 174.034 166.823 175.576 167.195 176.392C167.615 177.312 168.413 178.015 169.396 178.072C170.551 178.139 171.766 177.529 172.347 176.46L172.345 176.46Z" fill="white"/>
<path d="M195.662 163.869C194.687 161.789 191.955 160.738 189.838 161.63C188.619 162.145 187.502 163.706 187.472 165.028C187.457 165.705 187.635 166.345 187.954 166.94C188.521 167.996 189.951 169.701 191.199 169.919C192.607 170.163 194.089 169.784 194.991 168.666C196.051 167.352 196.389 165.419 195.663 163.868L195.662 163.869Z" fill="white"/>
</svg>
