<svg width="275" height="272" viewBox="0 0 275 272" fill="none" xmlns="http://www.w3.org/2000/svg">
<path d="M139.489 119.869C133.126 107.058 122.283 102.487 114.026 108.339C107.091 114.616 109.096 126.187 122.276 135.826C125.09 137.884 128.107 139.824 129.97 142.771C135.959 152.244 130.662 161.024 140.03 164.033C150.727 167.469 160.998 162.915 160.306 149.933C159.967 143.583 153.213 140.881 144.208 128.467C142.286 125.817 140.945 122.802 139.489 119.869Z" fill="white"/>
<path d="M150.84 103.872C161.673 105.738 179.51 92.225 184.519 87.5548C192.674 81.4556 195.942 74.4574 207.392 65.8058C218.842 57.1543 232.249 90.6019 217.833 97.3555C208.299 101.822 198.86 107.921 195.332 110.412C191.464 112.955 182.686 119.455 178.525 125.112C173.322 132.184 176.113 137.772 168.598 144.777C161.083 151.783 156.707 154.431 150.569 145.739C144.431 137.047 148.12 133.3 142.561 127.031C136.894 119.335 134.679 121.704 132.88 117.316C131.955 115.059 131.509 112.443 132.569 110.246C134.836 105.542 142.079 102.364 150.84 103.872Z" fill="#FFE8D3"/>
<path d="M117.005 176.192C106.169 174.297 93.4645 183.155 88.467 187.82C80.3285 193.909 82.8948 193.603 71.4677 202.241C60.0407 210.878 40.7908 190.358 51.4039 182.781C62.0154 175.205 69.1589 171.114 72.6799 168.628C76.5417 166.09 87.6784 157.74 91.8256 152.084C97.0097 145.014 99.5005 136.388 103.695 130.539C107.889 124.69 113.724 120.954 119.882 129.675C124.911 136.797 130.51 130.571 135.359 137.439C142.856 148.055 129.454 148.283 140.076 157.101C145.174 161.333 129.129 177.091 117.005 176.192Z" fill="#FFE8D3"/>
<path d="M224.388 92.8683C214.751 97.8788 196.031 108.701 192.719 111.001C189.088 113.348 180.838 119.376 176.912 124.633C172.005 131.203 174.987 139.406 167.923 145.902C160.859 152.397 151.726 153.535 146.775 147.831C142.321 139.036 144.852 132.992 139.69 127.089C134.539 121.195 127.922 122.369 124.928 116.55C121.487 104.417 137.491 96.743 150.13 99.013C160.24 100.827 172.19 92.6186 176.906 88.2813C184.566 82.6352 195.917 71.8451 206.676 63.8306" stroke="#8BC3F5" stroke-width="4" stroke-linecap="round" stroke-linejoin="round"/>
<path d="M49.5747 176.689C61.3247 169.994 72.1581 162.636 75.4603 160.337C79.0905 157.99 87.3122 151.984 91.2277 146.728C96.1147 140.158 94.3878 132.379 101.442 125.884C107.745 119.199 116.712 116.848 122.406 125.036C127.06 131.728 131.763 128.282 134.844 132.915C140.926 141.242 132.645 145.76 143.22 154.95C149.815 160.877 131.189 174.598 118.066 172.454C107.954 170.611 96.0235 178.808 91.3173 183.135C83.6767 188.77 78.6288 195.138 67.8993 203.131" stroke="#8BC3F5" stroke-width="4" stroke-linecap="round" stroke-linejoin="round"/>
<path d="M91.2433 86.4278C90.304 84.2657 87.4892 83.2593 85.2415 84.2843C83.9471 84.8756 82.7195 86.569 82.6379 87.9681C82.5962 88.684 82.7575 89.3544 83.0684 89.9707C83.6196 91.0661 85.0488 92.8135 86.3452 92.9954C87.8075 93.1997 89.3711 92.7419 90.3573 91.5252C91.516 90.0945 91.9436 88.038 91.2447 86.4261L91.2433 86.4278Z" fill="white"/>
<path d="M192.065 139.546C192.843 138.111 192.351 136.085 191.014 135.228C190.244 134.734 188.929 134.737 188.177 135.272C187.793 135.545 187.505 135.916 187.298 136.35C186.931 137.12 186.543 138.662 186.915 139.478C187.335 140.398 188.133 141.1 189.116 141.158C190.27 141.225 191.486 140.615 192.066 139.546L192.065 139.546Z" fill="white"/>
<path d="M213.382 135.955C212.407 133.875 209.675 132.824 207.558 133.716C206.338 134.231 205.221 135.792 205.192 137.114C205.177 137.791 205.355 138.431 205.674 139.026C206.24 140.082 207.67 141.787 208.919 142.005C210.327 142.249 211.808 141.87 212.711 140.752C213.771 139.437 214.109 137.505 213.383 135.954L213.382 135.955Z" fill="white"/>
</svg>
