<svg width="275" height="272" viewBox="0 0 275 272" fill="none" xmlns="http://www.w3.org/2000/svg">
<path d="M111.001 128.376C117.401 115.176 113.668 98.2096 111.001 91.3762C94.5019 39.8762 167.501 57.3767 171.501 72.8762C175.022 86.5183 159.001 97.8762 162.001 119.376C165.001 140.876 184.501 144.876 187.501 177.876C188.551 189.426 187.001 205.376 178.001 211.876C169.001 218.376 96.0014 215.876 90.5014 211.876C85.0014 207.876 79.5014 200.876 83.0014 175.376C86.5014 149.876 103.001 144.876 111.001 128.376Z" fill="#FFE8D3"/>
<path d="M96.4989 161.376C94.9981 162.376 93.999 164.376 95.9991 165.876C97.9991 167.376 100.699 169.576 111.499 174.376C124.999 180.377 133.999 196.376 140.999 197.876C147.999 199.376 149.999 191.376 159.999 182.376C169.999 173.376 179.999 168.376 185.999 166.376C191.999 164.376 187.499 158.875 186.499 158.376C184.499 157.376 164.499 164.876 149.999 166.376C135.499 167.876 113.999 164.876 105.999 162.876C101.499 161.751 97.6757 160.592 96.4989 161.376Z" fill="#F2E1F4"/>
<path d="M92.3038 64.9623C97.7764 74.2226 108.866 96.5867 109.443 111.961C110.165 131.178 87.4898 147.177 82.1145 165.181C77.8143 179.585 82.9086 202.67 85.9934 212.412" stroke="#8BC3F5" stroke-width="4" stroke-linecap="round" stroke-linejoin="round"/>
<path d="M173.163 64.876C170.728 75.9653 166.117 101.385 167.148 114.351C168.179 127.317 178.6 141.886 184.333 149.326C193.208 160.841 192.349 174.916 191.489 186.432C190.802 195.645 186.432 207.9 184.333 212.876" stroke="#8BC3F5" stroke-width="4" stroke-linecap="round" stroke-linejoin="round"/>
<path d="M139 205.876C139 207.678 139 211.579 139 212.768C139 213.957 139 215.335 139 215.876" stroke="#8BC3F5" stroke-width="4" stroke-linecap="round" stroke-linejoin="round"/>
<path d="M87 155.876C91.2908 158.891 107.299 165.101 137.005 165.824C166.711 166.548 183.379 159.494 188 155.876" stroke="#8BC3F5" stroke-width="4" stroke-linecap="round" stroke-linejoin="round"/>
<path d="M82.5 166.376C91.5 169.876 101.5 172.876 113.5 182.376C127.5 193.459 135.5 201.876 138.5 204.876C144.5 200.376 148.935 192.787 160.5 184.376C171.5 176.376 180 171.876 191.5 166.376" stroke="#8BC3F5" stroke-width="4" stroke-linecap="round" stroke-linejoin="round"/>
<path d="M136.999 148.376C134.999 147.176 136.166 144.876 136.999 143.876C138.999 142.376 142.499 143.376 141.999 145.876C141.499 148.376 139.499 149.876 136.999 148.376Z" fill="#8BC3F5"/>
<path d="M89.6993 90.6768C88.76 88.5147 85.9452 87.5083 83.6976 88.5333C82.4031 89.1247 81.1756 90.818 81.0939 92.2171C81.0523 92.933 81.2136 93.6035 81.5244 94.2197C82.0757 95.3151 83.5049 97.0626 84.8013 97.2444C86.2636 97.4487 87.8271 96.991 88.8133 95.7742C89.972 94.3435 90.3997 92.287 89.7007 90.6752L89.6993 90.6768Z" fill="white"/>
<path d="M197.521 140.795C198.3 139.36 197.807 137.334 196.471 136.477C195.7 135.983 194.385 135.986 193.633 136.521C193.249 136.794 192.961 137.165 192.754 137.599C192.387 138.369 191.999 139.911 192.371 140.727C192.791 141.647 193.589 142.349 194.572 142.407C195.726 142.474 196.942 141.864 197.522 140.795L197.521 140.795Z" fill="white"/>
<path d="M201.838 120.204C200.863 118.124 198.131 117.073 196.014 117.965C194.794 118.48 193.677 120.041 193.648 121.363C193.633 122.04 193.811 122.68 194.13 123.275C194.697 124.331 196.127 126.036 197.375 126.254C198.783 126.498 200.264 126.119 201.167 125.001C202.227 123.687 202.565 121.754 201.839 120.203L201.838 120.204Z" fill="white"/>
</svg>
