<svg width="275" height="272" viewBox="0 0 275 272" fill="none" xmlns="http://www.w3.org/2000/svg">
<path d="M68.5098 105.733C67.4207 103.226 64.1568 102.059 61.5505 103.247C60.0496 103.933 58.6261 105.897 58.5315 107.519C58.4832 108.349 58.6702 109.126 59.0306 109.841C59.6698 111.111 61.3271 113.137 62.8303 113.348C64.5259 113.585 66.3389 113.054 67.4825 111.644C68.8261 109.985 69.3219 107.6 68.5115 105.731L68.5098 105.733Z" fill="white"/>
<path d="M199.728 203.732C200.631 202.069 200.06 199.72 198.51 198.725C197.617 198.153 196.092 198.156 195.22 198.776C194.774 199.094 194.44 199.524 194.201 200.026C193.775 200.919 193.325 202.708 193.756 203.654C194.243 204.72 195.169 205.535 196.308 205.602C197.647 205.68 199.056 204.972 199.73 203.732L199.728 203.732Z" fill="white"/>
<path d="M227.926 127.677C226.795 125.265 223.628 124.046 221.172 125.081C219.758 125.678 218.463 127.488 218.429 129.021C218.412 129.805 218.618 130.548 218.988 131.237C219.645 132.463 221.303 134.439 222.75 134.692C224.383 134.975 226.101 134.536 227.147 133.239C228.377 131.715 228.769 129.474 227.927 127.675L227.926 127.677Z" fill="white"/>
<path d="M132.889 187.578C164.285 189.318 184.053 185.259 197.425 182.939C220.099 174.241 195.099 151.626 178.82 149.306C162.541 146.987 157.308 141.768 139.285 142.928C121.262 144.087 118.355 148.726 112.541 151.626C106.727 154.525 108.471 146.407 112.541 137.709C116.61 129.01 112.541 127.851 112.541 116.253C112.541 104.655 115.448 107.555 128.82 107.555C142.192 107.555 143.355 102.336 146.262 97.6967C149.169 93.0577 148.006 90.7382 143.355 88.4186C138.704 86.0991 142.192 84.3595 143.355 78.5606C144.518 72.7617 142.773 68.7026 135.215 68.1227C127.657 67.5428 122.424 68.7026 115.448 78.5606C108.471 88.4186 96.2614 98.8565 89.2846 116.253C82.3078 133.649 72.424 156.265 80.5636 170.182C88.7032 184.099 101.494 185.839 132.889 187.578Z" fill="#FFE8D3"/>
<path d="M115.5 110C117.464 110 123.197 110 130.423 110C139.456 110 139.927 107.965 145.72 102.27C149.647 98.4103 151.627 96.3243 152.415 93.1564C153.043 90.6299 150.037 88.5946 148.187 88" stroke="#8BC3F5" stroke-width="4" stroke-linecap="round" stroke-linejoin="round"/>
<path d="M117.5 104C116.469 105.507 114.544 107.315 115.094 116.055C115.644 124.795 117.019 130.889 117.019 135.778C117.019 145.196 114.509 150.863 111.759 153.5C109.559 155.61 107.084 157.778 106.5 159" stroke="#8BC3F5" stroke-width="4" stroke-linecap="round" stroke-linejoin="round"/>
<path d="M200.5 188.663C145.428 197.344 103.051 192.033 84.8485 181.222C70.5362 172.721 70.4731 163.25 72.361 150.886C74.2489 138.523 83.6883 106.067 99.5467 87.5213C115.405 68.9753 124.011 64.0266 135.417 68.589C145.347 72.561 150.52 76.3164 150.52 79.7937C150.52 83.2711 140.141 93.267 135.637 96.2707C131.412 99.0884 125.235 95.0306 128.906 90.0699C132.578 85.1093 132.578 85.1093 135.025 82.0089" stroke="#8BC3F5" stroke-width="4" stroke-linecap="round" stroke-linejoin="round"/>
<path d="M200.5 152C174.382 148.429 165.912 137 148.971 137C131.215 137 120.029 142 116.5 144.857" stroke="#8BC3F5" stroke-width="4" stroke-linecap="round" stroke-linejoin="round"/>
</svg>
