<svg width="215" height="185" viewBox="0 0 215 185" fill="none" xmlns="http://www.w3.org/2000/svg">
<path d="M77.0014 73.3762C83.4014 60.1762 79.6681 43.2096 77.0014 36.3762C60.5019 -15.1238 133.501 2.37669 137.501 17.8762C141.022 31.5183 125.001 42.8762 128.001 64.3762C131.001 85.8762 150.501 89.8757 153.501 122.876C154.551 134.426 153.001 150.376 144.001 156.876C135.001 163.376 62.0014 160.876 56.5014 156.876C51.0014 152.876 45.5014 145.876 49.0014 120.376C52.5014 94.8762 69.0014 89.8762 77.0014 73.3762Z" fill="#FFE8D3"/>
<path d="M62.4989 106.376C60.9981 107.376 59.999 109.376 61.9991 110.876C63.9991 112.376 66.6995 114.576 77.4995 119.376C90.9995 125.377 99.9987 141.376 106.999 142.876C113.999 144.376 115.999 136.376 125.999 127.376C135.999 118.376 145.999 113.376 151.999 111.376C157.999 109.376 153.499 103.875 152.499 103.376C150.499 102.376 130.499 109.876 115.999 111.376C101.499 112.876 79.9992 109.876 71.9992 107.876C67.4993 106.751 63.6757 105.592 62.4989 106.376Z" fill="#F2E1F4"/>
<path d="M58.3038 9.96231C63.7764 19.2226 74.8659 41.5867 75.4431 56.9607C76.1647 76.1781 53.4898 92.1766 48.1145 110.181C43.8143 124.585 48.9086 147.67 51.9934 157.412" stroke="#8BC3F5" stroke-width="4" stroke-linecap="round" stroke-linejoin="round"/>
<path d="M139.163 9.87598C136.728 20.9653 132.117 46.3855 133.148 59.3515C134.179 72.3175 144.6 86.8864 150.333 94.3255C159.208 105.841 158.349 119.916 157.489 131.432C156.802 140.645 152.432 152.9 150.333 157.876" stroke="#8BC3F5" stroke-width="4" stroke-linecap="round" stroke-linejoin="round"/>
<path d="M105 150.876C105 152.678 105 156.579 105 157.768C105 158.957 105 160.335 105 160.876" stroke="#8BC3F5" stroke-width="4" stroke-linecap="round" stroke-linejoin="round"/>
<path d="M53 100.876C57.2908 103.891 73.299 110.101 103.005 110.824C132.711 111.548 149.379 104.494 154 100.876" stroke="#8BC3F5" stroke-width="4" stroke-linecap="round" stroke-linejoin="round"/>
<path d="M48.5 111.376C57.5 114.876 67.5 117.876 79.5 127.376C93.5 138.459 101.5 146.876 104.5 149.876C110.5 145.376 114.935 137.787 126.5 129.376C137.5 121.376 146 116.876 157.5 111.376" stroke="#8BC3F5" stroke-width="4" stroke-linecap="round" stroke-linejoin="round"/>
<path d="M102.999 93.3757C100.999 92.1757 102.166 89.8757 102.999 88.8757C104.999 87.3757 108.499 88.3757 107.999 90.8757C107.499 93.3757 105.499 94.8757 102.999 93.3757Z" fill="#8BC3F5"/>
<path d="M55.6993 35.6768C54.76 33.5147 51.9452 32.5083 49.6976 33.5333C48.4031 34.1247 47.1756 35.818 47.0939 37.2171C47.0523 37.933 47.2136 38.6035 47.5244 39.2197C48.0757 40.3151 49.5049 42.0626 50.8013 42.2444C52.2636 42.4487 53.8271 41.991 54.8133 40.7742C55.972 39.3435 56.3997 37.287 55.7007 35.6752L55.6993 35.6768Z" fill="white"/>
<path d="M163.521 85.7947C164.3 84.3599 163.807 82.3342 162.471 81.4767C161.7 80.9832 160.385 80.9858 159.633 81.5206C159.249 81.7943 158.961 82.165 158.754 82.5986C158.387 83.3686 157.999 84.911 158.371 85.7268C158.791 86.6468 159.589 87.3495 160.572 87.407C161.726 87.4742 162.942 86.8638 163.522 85.7949L163.521 85.7947Z" fill="white"/>
<path d="M167.838 65.2044C166.863 63.1239 164.131 62.0727 162.014 62.9651C160.794 63.4801 159.677 65.041 159.648 66.3632C159.633 67.0397 159.811 67.6803 160.13 68.2748C160.697 69.3315 162.127 71.0362 163.375 71.2536C164.783 71.498 166.264 71.1191 167.167 70.001C168.227 68.6865 168.565 66.7537 167.839 65.2028L167.838 65.2044Z" fill="white"/>
</svg>
