<svg xmlns="http://www.w3.org/2000/svg" fill="none" viewBox="0 0 200 28" height="28" width="200">
<g clip-path="url(#clip0_1043_116)">
<path fill="white" d="M0.138892 27.744C0.138892 27.744 0.245731 27.439 0.277782 27.2392C0.320518 27.0393 0.341886 26.5661 0.341886 26.5661L0.40599 13.5986C0.40599 13.5986 0.341886 12.5575 0.341886 11.9474C0.341886 11.1061 0 10.5172 0 10.5172L7.7886 6.9624V10.4541C7.92748 10.3068 10.6519 6.92033 14.9788 7.36205C19.3059 7.80376 19.402 10.4962 19.4768 10.4856C19.6585 10.4541 22.3081 6.93085 26.4855 7.38308C30.289 7.79325 30.9086 10.1595 30.9086 11.0219V26.8711C30.9086 26.8711 30.9727 27.2497 30.9941 27.3023L31.133 27.723C31.133 27.723 23.2483 27.7651 23.2589 27.723C23.2589 27.723 23.3979 27.5442 23.4405 27.3654C23.494 27.134 23.526 26.7449 23.526 26.7449C23.526 26.7449 23.4833 14.419 23.4085 14.0193C23.323 13.6196 23.1308 12.7152 21.8594 12.5049C20.15 12.2209 19.4982 14.2297 19.4982 14.2297C19.4982 15.2709 19.338 26.8501 19.338 26.8501C19.338 26.8501 19.3593 27.1656 19.4448 27.3654L19.5943 27.723H11.5921C11.5921 27.723 11.7096 27.5021 11.7417 27.3023C11.7844 27.1024 11.7737 26.8816 11.7737 26.8816C11.7737 26.8816 11.8592 14.3875 11.7737 14.0719C11.6883 13.7459 11.4318 12.568 10.0749 12.568C8.83562 12.568 8.01295 14.0298 7.85269 14.7976C7.75654 15.2498 7.73517 26.8606 7.73517 26.8606L7.85269 27.3339L8.01296 27.7335C8.01296 27.7335 0.16026 27.7651 0.138892 27.7335V27.744Z" clip-rule="evenodd" fill-rule="evenodd"></path>
<path fill="white" d="M48.9447 27.659C48.09 27.5013 47.4169 27.1962 47.1926 27.0806C46.6904 26.8071 45.5579 25.8501 45.5579 25.8501C45.5579 25.8501 45.4404 25.8921 45.1519 26.0499C44.8634 26.2077 42.8656 27.3435 42.0108 27.6169C40.2373 28.1743 38.2608 28.0901 36.9146 27.5749C32.9722 26.0709 32.9188 22.8002 32.8761 21.9903C32.8333 21.191 32.7051 17.773 36.0385 15.964C38.592 14.5759 41.8079 14.355 41.8079 14.355C41.8079 14.355 41.2416 11.5049 39.2971 10.6951C37.1176 9.79057 35.0769 10.937 35.0769 10.937C35.0769 10.937 35.0984 7.88702 35.0769 7.76082C35.0769 7.76082 37.8121 6.79325 40.2586 6.83532C42.7053 6.87739 44.1369 7.23497 45.0344 7.60306C45.9319 7.96064 48.3785 9.28578 49.2332 13.0298C50.0879 16.7634 50.3763 19.0981 50.5793 20.255C50.7824 21.4224 50.9426 22.9053 51.637 23.7887C52.3315 24.6721 53.1221 24.4513 53.2717 24.4724C53.2717 24.4724 53.2931 27.6064 53.2717 27.7221C53.2717 27.7221 49.7994 27.8062 48.9447 27.6379V27.659ZM40.2907 23.3259C41.8505 25.3032 44.0835 23.7677 44.2438 23.4417C44.2438 23.4417 42.8762 17.6153 42.6519 17.5417C42.6519 17.5417 38.2394 19.3401 40.2801 23.3259H40.2907Z" clip-rule="evenodd" fill-rule="evenodd"></path>
<path fill="white" d="M54.5117 27.7439H62.8772C62.8772 27.7439 62.7703 27.6071 62.717 27.502C62.6528 27.3969 62.5781 27.0183 62.5781 27.0183V16.375C62.5781 15.9753 62.7918 14.1138 63.1871 13.5249C63.593 12.9254 64.1272 12.4837 65.2704 12.3155C66.4136 12.1577 68.1444 12.5153 68.1444 12.5153C68.1444 12.5153 69.7577 7.49866 69.7791 7.30936C69.7791 7.30936 69.2663 6.73091 67.6743 6.60471C66.1251 6.48902 64.9392 7.404 64.2447 8.04555C63.5503 8.68708 62.9627 9.34965 62.5674 9.67567V6.72039L54.3301 10.212C54.3301 10.212 54.4689 10.496 54.6185 10.8325C54.7575 11.1691 54.8643 12.2629 54.8643 12.2629L54.8002 27.0288L54.6934 27.4284L54.5117 27.7334V27.7439Z" clip-rule="evenodd" fill-rule="evenodd"></path>
<path fill="white" d="M69.8525 27.7434H78.1967C78.1967 27.7434 78.0791 27.5225 77.9937 27.3227C77.9723 27.2701 77.8975 26.9966 77.9082 26.7337C77.9082 26.3762 77.9082 6.97225 77.9082 6.65674L69.9914 10.0747L70.0341 26.8179C70.0341 26.8179 70.0769 27.0702 69.9914 27.3542C69.906 27.6382 69.8525 27.7539 69.8525 27.7539V27.7434Z" clip-rule="evenodd" fill-rule="evenodd"></path>
<path fill="white" d="M74.01 6.4259C76.5101 6.4259 78.4011 4.85887 78.4011 3.14459C78.4011 1.43032 76.5101 0 74.01 0C71.51 0 69.6616 1.47238 69.6616 3.18665C69.6616 4.90093 71.51 6.41538 74.01 6.41538V6.4259Z" clip-rule="evenodd" fill-rule="evenodd"></path>
<path fill="white" d="M92.3083 24.1683C95.8985 24.4522 97.4043 23.1271 97.4043 23.1271V26.5766C97.2016 26.7344 95.2034 27.6599 91.2398 27.744C87.2868 27.8281 85.5668 26.7449 85.1608 26.5766C84.7548 26.4188 80.759 24.0105 79.9791 19.383C79.1991 14.766 81.3252 11.3901 81.3252 11.3901C81.3252 11.3901 83.398 7.53034 88.7078 6.73104C94.0069 5.93175 96.7954 8.48739 97.8852 10.1491C99.5625 12.7047 100.258 16.596 100.258 16.596C100.258 16.596 87.9707 19.9088 87.9386 20.035C87.8959 20.1507 88.7185 23.8948 92.3083 24.1683ZM87.1693 16.9746L92.4363 15.5023C92.4363 15.5023 92.7572 10.1806 89.7332 10.3804C86.71 10.5803 87.1267 16.943 87.1693 16.9641V16.9746Z" clip-rule="evenodd" fill-rule="evenodd"></path>
<path fill="white" d="M122.255 26.9238L122.298 23.4111C122.18 23.4532 120.92 24.2735 119.274 24.1788C116.945 24.0422 115.45 22.1701 115.193 21.7705C114.905 21.3288 113.868 19.2885 113.772 16.9957C113.654 14.5873 114.552 12.3788 115.278 11.6531C116.016 10.9274 117.03 10.2858 118.334 10.3279C119.637 10.37 121.539 11.0116 121.603 11.0116L121.625 7.57251C121.625 7.57251 118.505 6.69959 116.71 6.62598C112.244 6.43667 109.552 9.05542 109.039 9.6023C108.473 10.2018 106.144 12.4103 106.261 18.1526C106.71 24.0947 110.299 26.2297 110.299 26.2297C110.299 26.2297 112.362 27.9019 116.87 27.8598C120.599 27.8177 122.255 26.9343 122.255 26.9343V26.9238Z" clip-rule="evenodd" fill-rule="evenodd"></path>
<path fill="white" d="M123.977 27.7121L132.236 27.7332C132.236 27.7332 132.129 27.5333 132.097 27.4072C132.097 27.4072 131.99 27.0706 131.969 26.7761C131.948 26.5237 131.926 0.367924 131.926 0.367924C131.948 0.273271 123.443 4.13301 123.443 4.13301C123.764 4.438 123.998 4.90075 124.073 5.50022L124.094 26.8497C124.094 26.8497 124.094 27.0811 124.03 27.3651C123.998 27.5544 123.966 27.7016 123.966 27.7016L123.977 27.7121Z" clip-rule="evenodd" fill-rule="evenodd"></path>
<path fill="white" d="M155.601 27.7434H164.009C164.009 27.7434 163.881 27.533 163.849 27.4069C163.849 27.4069 163.721 26.9862 163.721 26.8494C163.721 26.597 163.774 7.05642 163.721 6.77246L155.825 10.4324C155.825 10.5376 155.846 26.9231 155.846 26.9231L155.804 27.3332C155.772 27.4384 155.612 27.7434 155.612 27.7434H155.601Z" clip-rule="evenodd" fill-rule="evenodd"></path>
<path fill="white" d="M166.189 27.7437H174.533C174.533 27.7437 174.437 27.6492 174.373 27.3651C174.352 27.281 174.287 26.8393 174.287 26.8393V16.3328C174.287 15.9332 174.437 14.0927 174.832 13.5037C175.238 12.9043 175.773 12.4626 176.916 12.2943C178.059 12.1365 179.757 12.431 179.757 12.431L181.349 7.3513C181.349 7.3513 181.04 6.65717 179.352 6.60458C177.803 6.56252 176.596 7.38284 175.901 8.0349C175.206 8.67643 174.287 9.6861 174.287 9.6861C174.287 9.6861 174.331 6.63613 174.287 6.61511L165.986 10.2119C165.986 10.2119 166.125 10.4748 166.275 10.9797C166.413 11.4845 166.413 12.3258 166.413 12.3258L166.445 26.2819C166.445 26.2819 166.445 26.9234 166.349 27.2915C166.285 27.5545 166.189 27.7542 166.189 27.7542V27.7437Z" clip-rule="evenodd" fill-rule="evenodd"></path>
<path fill="white" d="M192.119 24.1471C195.709 24.4311 197.215 23.0112 197.215 23.0112V26.5555C197.013 26.7133 195.014 27.6387 191.051 27.7228C187.098 27.807 185.378 26.7238 184.972 26.5555C184.565 26.3977 180.57 23.9893 179.79 19.3619C179.01 14.7449 181.136 11.3689 181.136 11.3689C181.136 11.3689 183.209 7.51971 188.519 6.7099C193.647 5.93164 196.436 8.59244 197.696 10.1279C198.957 11.6528 200.037 16.4486 199.865 16.5959C199.758 16.68 187.792 19.8877 187.749 20.0139C187.707 20.1296 188.53 23.8736 192.119 24.1471ZM187.151 16.9219C187.44 16.9219 192.215 15.6073 192.419 15.4496C192.621 15.2918 192.739 10.1279 189.716 10.3277C186.692 10.5276 186.863 16.9114 187.151 16.9114V16.9219Z" clip-rule="evenodd" fill-rule="evenodd"></path>
<path fill="white" d="M159.331 6.68908C161.831 6.68908 163.722 5.12205 163.722 3.40778C163.722 1.6935 161.831 0.263184 159.331 0.263184C156.831 0.263184 154.982 1.73556 154.982 3.44984C154.982 5.16411 156.821 6.67856 159.331 6.67856V6.68908Z" clip-rule="evenodd" fill-rule="evenodd"></path>
<path fill="white" d="M149.714 27.6177C148.86 27.46 148.186 27.1549 147.962 27.0393C147.46 26.7658 146.327 25.8193 146.327 25.8193C146.327 25.8193 146.21 25.8613 145.921 26.0191C145.633 26.1769 143.635 27.3127 142.78 27.5861C141.006 28.1435 139.03 28.0594 137.684 27.5441C133.742 26.0402 133.688 22.7694 133.646 21.9595C133.603 21.1602 133.475 17.7422 136.808 15.9333C139.361 14.5451 142.577 14.3242 142.577 14.3242C142.577 14.3242 142.011 11.4741 140.067 10.6643C137.887 9.75986 135.846 10.9062 135.846 10.9062C135.846 10.9062 135.868 7.85626 135.846 7.73006C135.846 7.73006 138.582 6.76249 141.028 6.80456C143.475 6.84663 144.906 7.20421 145.804 7.57231C146.702 7.92988 149.148 9.25498 150.003 12.9991C150.857 16.7326 151.146 19.0674 151.349 20.2242C151.551 21.3917 151.712 22.8745 152.406 23.7579C153.101 24.6414 153.892 24.4206 154.041 24.4416C154.041 24.4416 154.062 27.5756 154.041 27.6913C154.041 27.6913 150.569 27.7755 149.714 27.6072V27.6177ZM141.06 23.2847C142.62 25.2619 144.853 23.7264 145.014 23.4004C145.014 23.4004 143.646 17.574 143.422 17.5004C143.422 17.5004 139.009 19.2988 141.06 23.2847Z" clip-rule="evenodd" fill-rule="evenodd"></path>
</g>
<defs>
<clipPath id="clip0_1043_116">
<rect fill="white" height="28" width="200"></rect>
</clipPath>
</defs>
</svg>
