<svg xmlns="http://www.w3.org/2000/svg" fill="none" viewBox="0 0 275 272" height="272" width="275">
<path fill="#FFE8D3" d="M159.5 136.5C156.5 141 146 150.5 139 150.5C128 150.5 121.5 145.5 116 140.5C114.112 138.783 112.217 135.655 110.538 132.221C106.674 124.32 98.5273 118.424 96 110C94.5 105 95 102.5 99 101.5C100.856 101.036 105.219 98.545 105.315 96.6343C105.448 94.0147 105.79 91.0172 106.5 88C108.5 79.5 109.5 75 114 69C118.5 63 130 60 143.5 61.5C157 63 161.5 71 165.5 80C168.7 87.2 168 96 169 97C170 97.5 171.5 96.8 173.5 98C176 99.5 177.5 103 175 109C172.5 114 170 112 167.5 115.5C166.5 118.5 165.8 120.9 165 124.5C164 129 162.5 132 159.5 136.5Z"></path>
<path stroke-linejoin="round" stroke-linecap="round" stroke-width="4" stroke="#8BC3F5" d="M116.375 145.533C108.938 139.087 104.599 125.08 103.36 118.882C102.327 119.088 101.624 118.758 99.6409 118.262C97.1618 117.642 94.8364 115.314 93.4431 110.205C91.5837 103.387 94.1583 100.257 95.9222 99.6686C99.6409 98.429 101.5 100.495 102.12 101.528C101.913 97.8092 102.12 88.2646 104.599 79.8355C107.698 69.2992 113.276 66.8201 121.953 61.8618C130.63 56.9035 144.885 57.5233 153.562 61.8618C162.239 66.2003 165.958 73.6377 169.057 81.0751C171.536 87.025 172.982 95.1235 172.775 98.429C174.635 97.8092 178.451 98.15 179.593 102.148C180.833 106.486 179.906 109.814 177.114 113.304C174.635 116.403 171.123 117.642 169.676 117.642C169.47 120.535 167.979 127.554 165.5 134C162.401 142.057 154.958 149.281 150 153C145.042 156.719 138.068 157.308 133.729 156.069C129.391 154.829 125.672 153.59 116.375 145.533Z"></path>
<path stroke-linejoin="round" stroke-linecap="round" stroke-width="4" stroke="#8BC3F5" d="M162.859 139.954C162.446 143.673 161.867 152.474 162.859 157.928C164.098 164.746 170.916 170.944 183.931 174.043C196.947 177.141 201.799 177.292 212 180C219.079 181.879 228 185.5 230.5 205"></path>
<path stroke-linejoin="round" stroke-linecap="round" stroke-width="4" stroke="#8BC3F5" d="M112.037 140.574C112.45 144.293 113.028 153.094 112.037 158.548C110.797 165.366 102.015 169.401 89 172.5C75.9845 175.599 69.5623 176.146 59.5 179.5C49 183 44 191 42.5 206.5"></path>
<path stroke-linejoin="round" stroke-linecap="round" stroke-width="4" stroke="#8BC3F5" d="M175.874 97.1894C175.874 91.6114 175.502 80.8271 174.015 74.8772C172.156 67.4398 169.676 56.9035 156.661 48.8463C143.646 40.7891 123.812 43.888 113.276 50.0859C102.74 56.2837 99.0212 66.2002 97.1618 77.3563C95.6743 86.2812 96.542 94.7103 97.1618 98.429"></path>
</svg>
