<svg xmlns="http://www.w3.org/2000/svg" fill="none" viewBox="0 0 215 185" height="185" width="215">
<path fill="#FFE8D3" d="M126.473 101.436C124.127 104.96 115.918 112.399 110.445 112.399C101.845 112.399 96.7636 108.483 92.4636 104.568C90.9863 103.223 89.5042 100.77 88.1907 98.0791C85.1722 91.8943 78.8019 87.2765 76.8273 80.6838C75.6545 76.7684 76.0454 74.8107 79.1727 74.0276C80.6228 73.6645 84.035 71.7177 84.1099 70.2248C84.213 68.1716 84.4807 65.8215 85.0364 63.4559C86.6 56.7996 87.3818 53.2758 90.9 48.5772C94.4182 43.8787 103.409 41.5294 113.964 42.7041C124.518 43.8787 128.036 50.1434 131.164 57.1912C133.665 62.8294 133.118 69.7206 133.9 70.5037C134.682 70.8952 135.855 70.3471 137.418 71.2868C139.373 72.4614 140.545 75.2022 138.591 79.9007C136.636 83.8162 134.682 82.25 132.727 84.9908C131.945 87.3401 131.398 89.2195 130.773 92.0386C129.991 95.5625 128.818 97.9118 126.473 101.436Z"></path>
<path stroke-linejoin="round" stroke-linecap="round" stroke-width="4" stroke="#8BC3F5" d="M92.7569 108.509C86.9422 103.461 83.5503 92.4926 82.5812 87.6391C81.7736 87.8009 81.2244 87.542 79.6738 87.1538C77.7356 86.6684 75.9176 84.845 74.8282 80.8443C73.3745 75.5055 75.3874 73.0539 76.7664 72.5934C79.6738 71.6227 81.1275 73.2405 81.612 74.0495C81.4505 71.1374 81.612 63.6631 83.5503 57.0624C85.9731 48.8115 90.3341 46.8701 97.1179 42.9874C103.902 39.1046 115.047 39.5899 121.83 42.9874C128.614 46.3848 131.522 52.2089 133.944 58.0331C135.883 62.6924 137.013 69.0342 136.852 71.6227C138.305 71.1374 141.289 71.4043 142.182 74.5348C143.151 77.9322 142.426 80.5381 140.244 83.271C138.305 85.6977 135.559 86.6684 134.429 86.6684C134.267 88.9334 133.102 94.4304 131.164 99.478C128.741 105.787 122.922 111.445 119.045 114.357C115.169 117.269 109.716 117.731 106.324 116.76C102.933 115.789 100.025 114.818 92.7569 108.509Z"></path>
<path stroke-linejoin="round" stroke-linecap="round" stroke-width="4" stroke="#8BC3F5" d="M129.099 104.141C128.776 107.053 128.323 113.945 129.099 118.216C130.068 123.555 135.398 128.408 145.574 130.835C155.749 133.262 159.543 133.379 167.518 135.5C173.053 136.972 180.027 139.807 181.982 155.077"></path>
<path stroke-linejoin="round" stroke-linecap="round" stroke-width="4" stroke="#8BC3F5" d="M89.365 104.626C89.688 107.538 90.1403 114.43 89.365 118.701C88.3959 124.04 81.5303 127.2 71.3545 129.627C61.1788 132.054 56.1578 132.482 48.2909 135.108C40.0818 137.849 36.1727 144.114 35 156.252"></path>
<path stroke-linejoin="round" stroke-linecap="round" stroke-width="4" stroke="#8BC3F5" d="M139.274 70.652C139.274 66.2839 138.984 57.8389 137.821 53.1796C136.367 47.3554 134.429 39.1046 124.253 32.7951C114.077 26.4856 98.5716 28.9123 90.3341 33.7658C82.0966 38.6192 79.1892 46.3847 77.7356 55.121C76.5726 62.1099 77.251 68.7106 77.7356 71.6227"></path>
</svg>
