<svg xmlns="http://www.w3.org/2000/svg" fill="none" viewBox="0 0 275 272" height="272" width="275">
<path fill="#FFE7EA" d="M180.223 85.1571C172.482 72.5726 154.79 62.7238 135.992 65.4596C92.315 74.7612 93.4208 122.364 112.772 139.873C132.122 157.381 157.002 154.646 174.694 139.873C192.386 125.099 187.963 97.7417 180.223 85.1571Z"></path>
<path fill="white" d="M75.3574 134.403C74.4181 132.241 71.6033 131.235 69.3557 132.26C68.0612 132.851 66.8336 134.545 66.752 135.944C66.7104 136.66 66.8717 137.33 67.1825 137.946C67.7337 139.042 69.163 140.789 70.4594 140.971C71.9217 141.175 73.4852 140.718 74.4714 139.501C75.6301 138.07 76.0578 136.014 75.3588 134.402L75.3574 134.403Z"></path>
<path fill="white" d="M215.442 78.4999C213.827 78.741 212.505 80.3524 212.624 81.9363C212.693 82.8486 213.486 83.8977 214.365 84.1765C214.815 84.3191 215.285 84.3263 215.755 84.2304C216.591 84.0607 218.057 83.4434 218.485 82.6554C218.967 81.7665 219.049 80.7062 218.504 79.8867C217.863 78.9236 216.644 78.3199 215.441 78.4988L215.442 78.4999Z"></path>
<path fill="white" d="M199.753 63.6288C198.677 65.6591 199.48 68.4737 201.467 69.6285C202.611 70.293 204.53 70.2466 205.604 69.4749C206.154 69.0799 206.559 68.5525 206.841 67.94C207.345 66.8521 207.847 64.6843 207.27 63.5563C206.618 62.2845 205.424 61.3285 203.989 61.2801C202.301 61.2237 200.553 62.1161 199.751 63.6287L199.753 63.6288Z"></path>
<circle stroke-linejoin="round" stroke-linecap="round" stroke-width="4" stroke="#8BC3F5" r="45.5" cy="106.5" cx="138.5"></circle>
<line stroke-linejoin="round" stroke-linecap="round" stroke-width="4" stroke="#8BC3F5" y2="186" x2="163" y1="186" x1="113"></line>
<line stroke-linejoin="round" stroke-linecap="round" stroke-width="4" stroke="#8BC3F5" y2="214" x2="140" y1="152" x1="140"></line>
<rect fill="#8BC3F5" rx="2.30769" height="33.4615" width="4.61538" y="90" x="124"></rect>
<rect fill="#8BC3F5" rx="2.30769" height="33.4615" width="4.61538" y="90" x="149.385"></rect>
</svg>
