<svg xmlns="http://www.w3.org/2000/svg" fill="none" viewBox="0 0 69 69" height="69" width="69">
<g clip-path="url(#clip0_1043_55)">
<path fill="white" d="M34.5006 68.9999H36.5073C37.3867 68.9035 38.2678 68.8222 39.1449 68.7084C43.9708 68.0802 48.4601 66.4869 52.5985 63.9327C57.9642 60.622 62.1216 56.1676 65.0715 50.5953C66.6991 47.5209 67.8186 44.2666 68.4383 40.8413C68.4672 40.6817 68.5172 40.5253 68.5575 40.3674V40.0438C65.9054 56.4616 51.6673 68.9999 34.5006 68.9999ZM68.4982 28.5991C68.5188 28.7176 68.5385 28.8362 68.5575 28.9553V28.8991C68.5378 28.7989 68.5181 28.6995 68.4982 28.5991ZM30.9819 68.8222C31.4445 68.8724 31.9093 68.9127 32.3749 68.9446C32.4873 68.9522 32.5981 68.9809 32.7098 68.9999H34.5006C33.3128 68.9999 32.1394 68.94 30.9819 68.8222Z"></path>
<path fill="white" d="M68.5565 28.9554C68.5374 28.8361 68.5177 28.7177 68.4972 28.5992C65.6978 12.3568 51.5417 0 34.4996 0C15.4464 0 0 15.4464 0 34.4996C0 52.2868 13.4604 66.9297 30.75 68.798C30.8268 68.8064 30.9042 68.8147 30.9809 68.8223C32.1383 68.9401 33.3118 69 34.4996 69C51.6663 69 65.9043 56.4617 68.5565 40.0439C68.8481 38.2385 69 36.387 69 34.4996C69 32.6123 68.8481 30.7606 68.5565 28.9554ZM18.1411 10.3898C18.9355 10.1376 19.8036 10.0108 20.6382 10.0085C29.9526 9.98191 39.2676 9.9842 48.5828 9.99558C52.0703 9.99938 54.986 12.1525 55.9452 15.3788C57.4011 20.2759 53.8019 25.0805 48.639 25.117C46.3483 25.1328 44.0569 25.1094 41.7664 25.1215C37.1707 25.1466 33.1523 26.6914 29.7065 29.7301C29.6124 29.8136 29.5159 29.8957 29.4179 29.9762C29.4005 29.9898 29.3723 29.9906 29.2607 30.0232V29.5409C29.2607 28.2377 29.2607 26.9336 29.2592 25.6303C29.2592 25.123 29.2577 25.1207 28.7632 25.1207C26.055 25.1192 23.3459 25.1223 20.6375 25.1192C17.2494 25.1147 14.4871 23.2485 13.3601 20.0504C11.9163 15.9492 14.1629 11.6543 18.1411 10.3898ZM11.3103 43.1274C11.3095 41.6342 11.3103 40.1403 11.3103 38.6465C11.3103 37.1525 11.3156 35.5834 11.3057 34.0522C11.3034 33.7554 11.3824 33.633 11.7044 33.6125C14.7265 33.4181 17.0861 31.0986 17.3496 28.0501C17.3824 27.6712 17.4948 27.5609 17.8647 27.5625C20.8517 27.5747 23.8388 27.5678 26.8265 27.5715C27.482 27.5724 27.5025 27.5815 27.4644 28.2194C27.0605 34.9128 23.737 39.6307 17.7058 42.44C15.896 43.2831 13.9305 43.6605 11.9216 43.7252C11.3163 43.7441 11.3103 43.7379 11.3103 43.1274ZM51.5486 55.8943C47.6205 58.8373 43.22 59.8634 38.4224 58.8829C33.6323 57.9039 30.0627 55.1546 27.4987 50.9736C27.4903 51.1119 27.4759 51.2509 27.4759 51.389C27.4744 53.6037 27.4759 55.8184 27.4744 58.033C27.4744 58.5586 27.4721 58.5602 26.9495 58.5602C23.9253 58.5609 20.9002 58.5609 17.8753 58.5602C17.3771 58.5602 17.3762 58.5579 17.3762 58.0559C17.3755 53.4997 17.3755 48.9436 17.3771 44.3874C17.3771 44.0335 17.3565 43.6743 17.409 43.3271C17.434 43.1585 17.5721 42.9292 17.718 42.8684C19.5362 42.115 21.1486 41.057 22.6053 39.7348C23.5684 38.8607 24.3977 37.8824 25.0782 36.7842C25.6151 35.9175 26.1156 35.0244 26.5706 34.1123C26.8265 33.5965 26.9564 33.0179 27.1447 32.4688C27.1995 32.3108 27.2625 32.1559 27.3217 31.9993C27.3619 32.0055 27.4022 32.0123 27.4433 32.0192V35.1398C31.6553 28.7989 37.4108 25.9197 44.9653 27.2648C49.1842 28.0159 52.5206 30.3415 54.9829 33.8518C59.9189 40.8884 58.3703 50.783 51.5486 55.8943Z"></path>
<path fill="white" d="M47.758 43.1409C47.7457 46.4591 45.0207 49.134 41.6653 49.1219C38.3091 49.1097 35.6289 46.3756 35.6456 42.9815C35.6615 39.6603 38.4284 36.9991 41.8445 37.0172C45.1095 37.0354 47.77 39.7908 47.758 43.1409Z"></path>
<path fill="white" d="M42.8823 15.5933C42.8581 14.5931 42.2169 13.817 41.2502 13.5489C40.9243 13.4585 40.5803 13.403 40.2431 13.3947C39.359 13.3734 38.4727 13.4 37.5879 13.3802C37.253 13.3726 37.1505 13.4858 37.1542 13.8154C37.1702 15.0548 37.1611 16.2944 37.1611 17.5331C37.1611 18.7718 37.1725 20.0379 37.1535 21.2896C37.1482 21.6442 37.2742 21.7506 37.6122 21.7444C38.459 21.7286 39.3067 21.749 40.1534 21.7339C40.4672 21.7277 40.7853 21.686 41.0922 21.6192C42.1387 21.3905 42.8581 20.5681 42.8838 19.5009C42.915 18.1992 42.9143 16.8951 42.8823 15.5933ZM41.715 19.2124C41.6944 20.1663 41.1272 20.6995 40.177 20.7138C39.6841 20.7215 39.1911 20.7055 38.6984 20.7176C38.4196 20.7245 38.3223 20.6137 38.3253 20.3379C38.336 19.4151 38.3292 18.4931 38.3292 17.5703C38.3285 16.6483 38.3368 15.7263 38.3239 14.8036C38.32 14.5133 38.4143 14.3911 38.7142 14.4011C39.2193 14.4169 39.7252 14.3957 40.2302 14.4085C41.1499 14.4321 41.6944 14.9539 41.7142 15.8767C41.7385 16.9886 41.7392 18.1012 41.715 19.2124Z"></path>
<path fill="white" d="M51.9886 17.579H51.9826C51.9826 17.023 51.997 16.4662 51.9789 15.9103C51.9606 15.3559 51.792 14.8426 51.4578 14.3913C50.74 13.4215 49.3024 13.0228 47.9877 13.4283C46.8333 13.7838 46.1156 14.7408 46.0851 16.0189C46.0617 17.0047 46.0631 17.9921 46.0798 18.9778C46.1087 20.6715 47.1781 21.7561 48.8801 21.8426C50.6741 21.9346 51.9158 20.8105 51.9856 19.0204C52.0046 18.5404 51.9886 18.0597 51.9886 17.579ZM50.8062 19.1344C50.7833 20.1376 50.0459 20.8204 49.0357 20.8227C48.0279 20.825 47.2974 20.1392 47.2624 19.1367C47.2442 18.5936 47.2594 18.0498 47.2594 17.506C47.2594 17.013 47.2502 16.5194 47.2616 16.0274C47.2844 15.0073 47.9793 14.323 48.9948 14.3086C50.0375 14.2934 50.7803 14.9617 50.8046 15.9862C50.8297 17.0352 50.8289 18.0856 50.8062 19.1344Z"></path>
<path fill="white" d="M23.0779 19.749C23.005 20.6148 22.5509 21.2293 21.7572 21.5414C20.5959 21.9994 19.4226 21.9834 18.3077 21.3895C17.4896 20.9543 17.1463 20.2192 17.217 19.3032C17.2245 19.2037 17.3697 19.086 17.4782 19.0305C17.5701 18.985 17.7031 19.0291 17.8155 19.0154C18.171 18.972 18.3417 19.0784 18.3479 19.4818C18.357 20.0862 18.7458 20.4493 19.282 20.6474C19.841 20.8541 20.4189 20.8898 20.9977 20.7205C21.4686 20.5822 21.8088 20.3034 21.8977 19.7969C21.9911 19.2676 21.7625 18.8612 21.306 18.6318C20.6074 18.2809 19.8804 17.9855 19.1682 17.6597C18.9045 17.539 18.6426 17.4113 18.3919 17.2663C17.5314 16.7665 17.2193 16.001 17.3871 15.0441C17.5481 14.125 18.1731 13.6306 19.0336 13.4111C19.3861 13.3215 19.7552 13.2972 19.9496 13.2676C20.8154 13.301 21.4815 13.4248 22.0647 13.8304C22.7186 14.2838 23.0209 14.9164 23.0149 15.7093C23.0126 15.9554 22.9048 16.0533 22.67 16.0458C22.531 16.0412 22.3913 16.0389 22.2523 16.048C21.9865 16.0655 21.8696 15.963 21.8551 15.6812C21.8202 15.0182 21.4267 14.618 20.8193 14.4235C20.2747 14.2504 19.7226 14.2473 19.1802 14.4494C18.8073 14.5884 18.5758 14.8549 18.5134 15.2536C18.4481 15.6737 18.5339 16.0709 18.9121 16.285C19.4263 16.5759 19.9792 16.7984 20.5162 17.0491C21.0198 17.2845 21.5415 17.4858 22.023 17.7592C22.7817 18.1913 23.1523 18.8628 23.0779 19.749Z"></path>
<path fill="white" d="M36.1443 16.4902C36.1435 17.3377 36.1458 18.1853 36.1435 19.0328C36.1397 20.4318 35.3461 21.4184 33.979 21.7033C33.3235 21.8391 32.6673 21.8065 32.0309 21.5893C30.9775 21.2301 30.3061 20.3126 30.2947 19.1628C30.278 17.3537 30.2963 15.5439 30.2857 13.7347C30.2841 13.4104 30.4185 13.3261 30.7171 13.3254C31.4612 13.3216 31.4605 13.3109 31.4605 14.0583C31.4605 15.6904 31.4825 17.3225 31.4552 18.9539C31.4272 20.64 33.0342 21.0371 34.0207 20.596C34.6853 20.2974 34.9702 19.7453 34.9739 19.0451C34.983 17.3119 34.9732 15.5788 34.9846 13.8456C34.986 13.68 35.0681 13.3838 35.1425 13.374C35.4463 13.3345 35.7638 13.3694 36.0713 13.4135C36.1116 13.4188 36.1405 13.6375 36.1413 13.7575C36.1465 14.6682 36.1443 15.5795 36.1443 16.4902Z"></path>
<path fill="white" d="M28.8255 14.4174C28.3585 14.4181 27.8898 14.4303 27.4228 14.4128C27.1052 14.4005 27.005 14.5305 27.0088 14.8365C27.021 15.9234 27.0134 17.0109 27.0134 18.0985C27.0134 19.1861 27.0035 20.2221 27.0187 21.2839C27.0233 21.6294 26.8987 21.7805 26.5547 21.7387C26.5417 21.7373 26.5288 21.7387 26.5167 21.7387C26.0691 21.7433 25.845 21.5251 25.8446 21.0841C25.8446 19.0487 25.8446 17.0132 25.8438 14.9778C25.8438 14.4197 25.8423 14.4197 25.2688 14.4181C24.8009 14.4165 24.3332 14.4051 23.8661 14.4181C23.4028 14.431 23.5113 14.1021 23.4947 13.8409C23.4787 13.5743 23.5046 13.3783 23.8638 13.3814C25.6091 13.3935 27.3536 13.3913 29.0982 13.3829C29.3876 13.3814 29.4635 13.5006 29.4673 13.7672C29.4748 14.4158 29.4847 14.4165 28.8255 14.4174Z"></path>
<path fill="white" d="M45.0572 14.2823C45.0685 16.6086 45.0639 18.9342 45.0541 21.2605C45.0533 21.4139 44.969 21.6903 44.9006 21.6979C44.5953 21.7313 44.2809 21.6949 43.9719 21.6621C43.9422 21.6591 43.9096 21.5057 43.9087 21.4215C43.9073 18.8301 43.9088 16.2387 43.9126 13.6466C43.9126 13.5744 43.9437 13.5023 43.9596 13.4332C44.0082 13.418 44.0432 13.3975 44.0797 13.3975C45.2645 13.3823 45.0526 13.2562 45.0572 14.2823Z"></path>
</g>
<defs>
<clipPath id="clip0_1043_55">
<rect fill="white" height="69" width="69"></rect>
</clipPath>
</defs>
</svg>
