<svg xmlns="http://www.w3.org/2000/svg" fill="none" viewBox="0 0 200 50" height="50" width="200">
<path fill="white" d="M39.0981 10.3513C38.4418 5.85076 36.7541 1.53777 31.5973 0.0375977H28.7845C25.5028 1.06897 22.9713 3.1317 22.1274 6.50708C21.2836 9.97623 20.5335 13.6329 20.4398 17.1958C20.346 24.7904 19.7834 32.385 21.4711 39.9796C22.2212 43.1675 22.8775 46.3554 25.9716 48.1368C30.6597 50.8559 37.0354 47.8556 38.2543 42.0424C39.2856 37.2606 40.1295 32.385 40.2233 27.5095C40.317 21.7901 39.8482 16.0707 39.0981 10.3513ZM31.9723 44.4802C31.9723 45.2303 31.8786 46.0741 31.5035 46.7304C31.316 47.1055 30.5659 47.3867 30.0033 47.3867C29.5345 47.3867 28.972 46.9179 28.7845 46.4491C28.5032 45.7928 28.3157 44.949 28.3157 44.1989C28.3157 31.2599 28.3157 18.2272 28.3157 5.2882C28.3157 4.25683 28.6907 2.75666 29.4408 2.19409C30.5659 1.25649 31.8786 2.56914 31.8786 4.63187C31.8786 11.0076 31.8786 17.4771 31.8786 23.8528V24.8842C31.9723 31.4474 31.9723 37.9169 31.9723 44.4802Z"></path>
<path fill="white" d="M60.7572 39.5108C60.4759 43.355 59.3508 47.1055 55.0378 48.6056C52.6 49.4495 50.0685 49.5432 47.912 47.8555C46.7869 46.9179 46.1306 46.7304 45.1929 47.8555C44.7241 48.4181 43.7865 48.6994 42.8489 49.262V27.6032C43.0365 27.5095 43.224 27.4157 43.4115 27.322C43.6928 28.072 44.1616 28.7284 44.3491 29.4785C45.1929 33.6039 45.8493 37.7294 46.7869 41.8549C47.0682 43.0738 48.0058 44.1989 48.5683 45.4178C49.3184 47.293 51.0061 47.293 52.3188 46.8242C53.0688 46.5429 53.7252 45.0427 53.9127 44.0114C54.2877 40.636 53.6314 37.4481 52.0375 34.4478C49.7872 30.1348 47.1619 26.0093 45.2867 21.5088C42.9427 15.9769 41.3488 10.1638 44.3491 4.25683C45.4742 2.00657 47.537 1.06897 49.5997 0.0375977H51.1936C52.6 0.881444 53.9127 1.72529 55.5066 2.75666C56.2567 2.00657 57.1006 0.975205 58.0382 0.0375977H59.257V20.2899H57.3818C57.1943 19.1648 57.0068 18.0397 56.8193 16.9145C56.1629 13.5391 55.5066 10.1638 54.7565 6.78837C54.569 5.85076 53.9127 5.10067 53.5376 4.25683C52.9751 2.94418 51.7562 2.10033 50.6311 2.6629C49.7872 3.1317 48.8496 4.63187 48.9434 5.56948C49.1309 7.9135 49.5997 10.445 50.5373 12.6015C52.6 17.2896 55.2253 21.8838 57.4756 26.4781C59.4446 30.5098 61.1323 34.8228 60.7572 39.5108Z"></path>
<path fill="white" d="M15.4701 45.1365C14.6263 47.1992 13.0324 48.7931 10.5008 49.0744C7.40671 49.3557 5.06269 48.4181 3.46876 45.6053C0.749703 40.9172 0.2809 35.6666 0.37466 30.416V18.3209C0.468421 15.8831 0.468421 13.4454 0.843464 11.1013C1.59355 6.41331 2.71868 1.9128 7.96928 0.131348H9.93825C11.3447 1.16272 12.6573 2.10032 14.2512 3.31921C15.0951 2.85041 14.9076 0.131348 17.4391 0.600151V20.2899H16.0327C14.8138 15.2268 13.5949 10.2575 12.2823 5.28819C11.9072 3.78801 11.3447 1.81904 8.71936 2.66289V15.9769C8.71936 25.1655 8.71936 34.354 8.71936 43.5425C8.71936 44.1989 8.71936 44.8552 9.00064 45.4178C9.28193 45.9803 9.84449 46.9179 10.3133 46.9179C11.1571 46.9179 12.2823 46.5429 12.6573 45.8866C14.4388 43.0737 15.2826 39.9796 15.5639 36.698C15.7514 33.979 15.9389 31.2599 16.5015 28.1658C16.8765 28.6346 17.5329 29.1034 17.5329 29.666C17.7204 34.9166 17.5329 40.1672 15.4701 45.1365Z"></path>
<path fill="white" d="M0.375043 18.3213V30.3227C0.281282 30.3227 0.0937607 30.2289 0 30.2289V18.415C0.0937607 18.415 0.187521 18.3213 0.375043 18.3213Z"></path>
<path fill="white" d="M199.898 2.00647C196.71 4.63176 197.179 8.56971 196.054 11.9451C194.553 16.2581 193.71 20.6648 192.584 25.0716C192.491 25.3529 192.397 25.5404 192.397 25.8217C192.397 32.6662 192.397 39.6045 192.397 46.5428H194.928C195.303 48.3242 195.21 48.5118 193.71 48.5118C189.959 48.5118 186.115 48.5118 182.177 48.5118V46.5428H184.333C184.333 45.8865 184.427 45.3239 184.427 44.7613C184.427 39.8858 184.24 34.9165 184.521 30.0409C184.708 24.9778 183.396 20.2898 182.083 15.6018C181.052 11.7576 180.208 7.91339 179.177 4.0692C178.989 3.22536 178.239 2.56903 177.77 1.9127C177.583 2.10023 177.395 2.19399 177.208 2.38151V21.3212C176.27 21.6024 175.801 21.79 175.52 20.3836C174.864 16.4456 174.114 12.5077 173.082 8.66347C172.52 6.50698 171.394 4.44424 170.551 2.38151C170.363 2.47527 170.176 2.47527 170.082 2.56903V46.5428C170.738 46.5428 171.394 46.6365 172.238 46.7303C172.238 47.2929 172.332 47.8554 172.332 48.5118H159.206C159.206 48.043 159.112 47.4804 159.112 46.7303C160.049 46.7303 160.893 46.6365 161.831 46.6365V2.56903C159.581 4.0692 159.018 6.50698 158.455 8.75724C157.518 12.4139 157.049 16.1643 156.299 19.9148C156.205 20.5711 155.736 21.1336 155.361 21.6962C155.174 21.6024 154.986 21.5087 154.799 21.4149V0.975098C166.144 0.975098 177.583 0.975098 188.928 0.975098C189.021 1.72518 189.021 2.10023 188.834 2.28775C188.834 2.28775 188.834 2.28775 188.74 2.38151C188.553 2.47527 188.084 2.56903 187.334 2.56903C187.896 5.28809 188.459 8.00715 189.021 10.7262C189.678 14.0078 190.428 17.2895 191.084 20.5711C191.178 20.5711 191.365 20.6648 191.459 20.6648C192.022 18.5083 192.584 16.3518 193.147 14.1954C193.803 11.3825 194.366 8.56971 195.116 5.75689C195.585 3.97544 194.647 3.22535 193.241 2.56903C192.772 2.28775 192.397 1.81894 192.022 1.4439C192.116 1.35014 192.209 1.16262 192.303 1.06886H199.804C199.991 1.35014 200.085 1.9127 199.898 2.00647Z"></path>
<path fill="white" d="M83.2598 32.6665C82.791 28.5411 80.822 25.7282 77.1654 23.9468C76.8841 23.853 76.6966 23.5718 76.7903 23.6655C78.103 22.5404 79.6969 21.6028 80.7283 20.2901C83.7286 16.5397 83.7286 12.1329 82.5097 7.7262C81.6659 4.53833 79.5094 1.72551 75.9465 1.35047C71.5397 0.881667 67.133 0.975427 62.7262 0.975427C62.4449 0.975427 62.0699 1.72551 61.5073 2.4756H64.2264V46.5431C63.3825 46.6369 62.7262 46.6369 62.0699 46.6369V48.5121C65.9141 48.5121 69.6645 48.7934 73.3212 48.4183C77.0716 48.0433 80.3532 46.7306 82.0409 42.7927C83.3536 39.5111 83.6348 36.2294 83.2598 32.6665ZM72.4773 2.56936C74.6338 2.66312 75.4777 3.50697 75.5714 5.85098C75.6652 10.2577 75.6652 14.7582 75.5714 19.165C75.4777 21.8841 74.8213 22.4466 72.4773 22.3529V2.56936ZM75.5714 43.2615C75.4777 45.9806 74.8213 46.5431 72.3836 46.5431V24.5094C74.7276 24.2281 75.2901 25.1657 75.4777 27.6035C75.7589 32.8541 75.6652 38.0109 75.5714 43.2615Z"></path>
<path fill="white" d="M106.325 28.822V48.5118H85.6972V46.6365H87.5724V2.66279C87.1974 2.00647 84.8534 3.22535 85.791 0.975098H106.325V19.0709H105.293C104.074 14.3829 102.855 9.69484 101.637 5.10057C101.074 2.94407 99.3863 2.38151 97.3235 2.47527C96.8547 2.47527 96.3859 2.47527 95.8234 2.47527V23.1964C100.324 20.5711 99.5738 16.2581 99.7613 12.1326C100.23 12.1326 100.699 12.0389 101.261 12.0389V36.6042C100.043 36.4166 99.5738 35.2915 99.7613 33.6038C99.9488 31.2598 99.6675 29.0095 98.1674 26.9468C97.6048 26.1967 97.136 25.3529 96.6672 24.6028C96.3859 24.7903 96.1046 25.0716 95.9171 25.2591V46.5428C100.511 47.0116 100.605 46.3553 101.73 43.0736C103.043 39.0419 103.699 34.8227 104.637 30.791C104.637 29.7596 104.449 28.3532 106.325 28.822Z"></path>
<path fill="white" d="M153.955 0.975098C153.393 1.72518 153.111 2.56903 152.736 2.66279C151.142 3.03783 151.236 4.16296 151.236 5.38185C151.236 16.5394 151.236 27.6031 151.236 38.7607C151.236 41.386 150.767 44.0113 149.267 46.2615C148.048 48.043 146.361 49.0743 144.204 48.9806C141.86 48.8868 139.329 49.4494 137.172 47.9492C134.547 46.074 133.797 43.3549 133.703 40.4483C133.609 27.9782 133.703 15.4142 133.703 2.85031C133.234 2.10023 130.984 3.31912 131.828 1.06886H144.392V2.47527C143.642 2.47527 142.985 2.56903 142.048 2.56903V4.72553C142.048 17.5707 142.048 30.416 142.048 43.2612C142.048 44.7613 141.579 46.5428 143.829 47.0116C145.517 47.3866 147.392 46.2615 148.048 44.2925C148.705 42.136 149.267 39.8858 149.267 37.7293C149.361 27.4156 149.361 17.1019 149.361 6.6945C149.361 4.81929 149.173 2.94407 146.736 2.47527C146.454 2.38151 146.267 1.63142 145.892 0.975098H153.955Z"></path>
<path fill="white" d="M127.515 44.105C127.421 42.6048 127.233 41.1047 127.046 39.6983C126.577 36.1354 126.014 32.5724 125.546 28.9158C125.077 25.5404 124.702 22.0713 124.327 18.6959C123.858 15.0392 123.295 11.3825 122.826 7.72587C122.545 5.47561 122.451 3.22535 122.17 0.975098H116.732C116.732 1.4439 116.826 1.81894 116.732 2.10023C115.513 8.851 114.294 15.6955 113.169 22.4463C112.044 29.6659 111.013 36.9792 109.888 44.2925C109.794 45.0426 109.044 45.7927 108.575 46.5428C108.2 47.1054 107.637 47.5742 107.262 48.1367C107.45 48.2305 107.543 48.418 107.731 48.5118H114.763V46.6365C113.075 46.5428 111.669 46.1677 112.044 44.0113C112.232 42.6986 112.232 41.2922 112.513 39.9795C112.607 39.417 113.263 38.7606 113.825 38.6669C115.607 38.4794 117.388 38.5731 119.264 38.5731C119.545 41.2922 119.826 43.9175 120.107 46.5428H117.67V48.418H129.859V46.5428C127.515 47.1991 127.608 45.6052 127.515 44.105ZM112.982 36.9792C114.013 30.6035 115.138 24.134 116.169 17.7583C116.263 17.7583 116.357 17.7583 116.451 17.6645C117.201 24.0402 118.045 30.416 118.889 36.9792H112.982Z"></path>
</svg>
