<svg xmlns="http://www.w3.org/2000/svg" fill="none" viewBox="0 0 200 66" height="66" width="200">
<g clip-path="url(#clip0_1043_33)">
<path fill="white" d="M39.1109 9.65094C39.1109 10.8184 38.1448 11.7913 36.9853 11.7913H29.5651C28.4056 11.7913 27.4395 10.8184 27.4395 9.65094V2.14033C27.4395 0.972877 28.4056 0 29.5651 0H36.9853C38.1448 0 39.1109 0.972877 39.1109 2.14033V9.65094Z"></path>
<path fill="white" d="M39.1109 63.8985C39.1109 65.066 38.1448 66.0388 36.9853 66.0388H29.5651C28.4056 66.0388 27.4395 65.1049 27.4395 63.8985V56.3879C27.4395 55.2204 28.4056 54.2476 29.5651 54.2476H36.9853C38.1448 54.2476 39.1109 55.1815 39.1109 56.3879V63.8985Z"></path>
<path fill="white" d="M21.0244 51.1344C21.8359 51.9516 21.8359 53.3136 21.0244 54.1697L15.807 59.4233C14.9954 60.2405 13.6427 60.2405 12.8311 59.4233L7.53643 54.0919C6.72484 53.2747 6.72484 51.9127 7.53643 51.0955L12.7538 45.8419C13.5654 45.0247 14.9181 45.0247 15.7297 45.8419L21.0244 51.1733V51.1344Z"></path>
<path fill="white" d="M59.0532 12.8417C59.8648 13.659 59.8648 15.021 59.0532 15.8382L53.8358 21.0917C53.0242 21.909 51.6716 21.909 50.8213 21.0917L45.5267 15.7604C44.7151 14.9432 44.7151 13.5811 45.5267 12.7639L50.7827 7.51037C51.5943 6.69316 52.947 6.69316 53.7586 7.51037L59.0532 12.8417Z"></path>
<path fill="white" d="M21.1401 12.8417C21.9517 13.659 21.9517 15.021 21.1401 15.8382L15.9228 21.1307C15.1112 21.9479 13.7585 21.9479 12.9083 21.1307L7.61358 15.7993C6.80198 14.9821 6.80198 13.62 7.61358 12.8028L12.831 7.51037C13.6426 6.69316 14.9952 6.69316 15.8068 7.51037L21.1015 12.8417H21.1401Z"></path>
<path fill="white" d="M59.2465 51.2125C60.0581 52.0297 60.0581 53.3917 59.2465 54.2479L54.0291 59.5014C53.2175 60.3186 51.8649 60.3186 51.0533 59.5014L45.7586 54.17C44.947 53.3528 44.947 51.9908 45.7586 51.1736L50.976 45.92C51.7876 45.1028 53.1402 45.1028 53.9518 45.92L59.2465 51.2514V51.2125Z"></path>
<path fill="white" d="M66.628 38.3316C66.628 39.4991 65.7004 40.4719 64.5024 40.4719H57.1207C55.9613 40.4719 54.9951 39.538 54.9951 38.3316V30.821C54.9951 29.6535 55.9227 28.6807 57.1207 28.6807H64.5024C65.6618 28.6807 66.628 29.6146 66.628 30.821V38.3316Z"></path>
<path fill="white" d="M11.6329 38.3316C11.6329 39.4991 10.6667 40.4719 9.50725 40.4719H2.1256C0.966184 40.4719 0 39.538 0 38.3316V30.821C0 29.6535 0.966184 28.6807 2.1256 28.6807H9.54589C10.7053 28.6807 11.6715 29.6146 11.6715 30.821V38.3316H11.6329Z"></path>
<path fill="white" d="M80.464 65.4161H74.4736V59.3843H80.464V65.4161Z"></path>
<path fill="white" d="M100.715 57.6332C99.6327 63.4316 95.9612 66 90.8984 66C85.8356 66 80.6182 61.4469 80.6182 54.987C80.6182 48.5271 84.5602 43.8184 91.2462 43.8184C97.9322 43.8184 100.251 46.5035 100.522 51.7181L94.8017 51.9516C94.4539 49.8891 93.2172 48.7217 91.0916 48.7217C87.7293 48.7217 86.7244 51.796 86.7244 54.7146C86.7244 57.6332 87.536 60.941 90.9756 60.941C94.4153 60.941 94.7244 59.5401 94.9563 57.3608L100.715 57.6332Z"></path>
<path fill="white" d="M111.923 66C105.43 66 101.372 61.4858 101.372 55.0259C101.372 48.566 105.739 43.8184 112.503 43.8184C119.266 43.8184 122.899 48.566 122.899 54.8313C122.899 61.2912 118.416 66 111.923 66ZM112.232 48.6438C108.676 48.6438 107.44 51.7181 107.44 54.8313C107.44 57.9445 108.56 61.1745 112.155 61.1745C115.749 61.1745 116.87 57.75 116.87 54.6368C116.87 51.6403 115.749 48.6438 112.232 48.6438Z"></path>
<path fill="white" d="M147.981 65.4162V54.4032C147.981 52.1461 147.787 49.3831 144.966 49.3831C142.145 49.3831 141.758 52.0683 141.758 54.4032V65.4162H135.807V53.586C135.807 51.7959 135.382 49.422 132.754 49.422C130.126 49.422 129.469 52.3018 129.469 54.2864V65.4551H123.594V44.5187H129.469V47.3206C130.705 44.9857 132.599 44.0518 135.227 44.0518C137.855 44.0518 139.787 45.2192 140.754 47.6319C142.029 45.3749 144.425 44.0907 146.976 44.0907C149.527 44.0907 150.377 44.5577 151.614 45.5694C153.816 47.3985 153.855 49.6166 153.855 52.2239V65.4551H147.942L147.981 65.4162Z"></path>
<path fill="white" d="M160.58 65.4161H154.589V59.3843H160.58V65.4161Z"></path>
<path fill="white" d="M175.111 63.5094C173.14 64.7936 171.942 66 168.618 66C165.295 66 161.353 63.704 161.353 59.2287C161.353 54.7535 164.869 53.0802 168.773 52.5353L171.594 52.1462C173.372 51.9127 174.802 51.757 174.802 50.395C174.802 49.033 172.599 48.4493 171.633 48.4493C169.468 48.4493 167.961 49.2665 167.961 51.0566H162.512C162.86 44.0908 169.468 43.8184 171.401 43.8184C177.043 43.8184 180.831 45.4917 180.831 51.7181V60.7853C180.831 62.9257 180.985 64.2877 181.526 65.2217L181.642 65.3773H175.42L175.15 63.4705L175.111 63.5094ZM174.956 55.3761C174.377 55.5707 174.029 55.7264 173.526 55.8431C171.865 56.2712 167.343 56.3101 167.343 59.0342C167.343 61.7582 168.889 61.2912 170.125 61.2912C171.362 61.2912 173.449 61.2523 174.995 58.5672V55.3372L174.956 55.3761Z"></path>
<path fill="white" d="M194.28 65.4163V63.1203C193.121 65.0271 190.532 65.9611 188.445 65.9611C181.991 65.9611 181.565 60.6687 181.565 56.6993V44.48H187.401V56.5047C187.401 58.8007 187.826 61.0189 190.648 61.0189C193.469 61.0189 194.203 58.5672 194.203 55.4151V44.48H199.884V65.4163H194.319H194.28Z"></path>
<path fill="white" d="M98.0095 36.6189V19.5741C98.0095 16.7722 96.966 14.0482 93.7583 14.0482C90.5505 14.0482 88.8114 17.5116 88.8114 20.5859V36.6189H80.6182V7.70501H88.5795V11.0517C90.5892 8.48332 93.1785 7.04346 96.5022 7.04346C99.8259 7.04346 100.831 7.58827 102.531 8.9503C105.816 11.4798 106.357 14.9821 106.357 18.8736V36.6189H97.9708H98.0095Z"></path>
<path fill="white" d="M115.903 24.5555C116.406 28.1357 118.338 30.743 122.126 30.743C125.913 30.743 126.3 29.8479 127.498 27.6687L135.691 28.2135C133.643 34.401 128.193 37.4364 121.894 37.4364C112.812 37.4364 107.362 31.0154 107.362 22.1428C107.362 13.2701 113.082 6.84912 121.894 6.84912C130.705 6.84912 136.039 14.2041 136.039 23.1545V24.5555H115.903ZM127.42 18.2902C127.15 15.3715 125.024 13.309 122.087 13.309C119.15 13.309 116.831 14.9824 115.942 18.2902H127.42Z"></path>
<path fill="white" d="M175.266 7.70508L166.956 36.619H159.382L154.551 17.0836L149.797 36.619H142.106L133.72 7.70508H142.106L146.473 25.8006L150.956 7.70508H158.145L162.589 25.8006L166.956 7.70508H175.266Z"></path>
<path fill="white" d="M181.488 26.4622C181.99 30.198 183.923 31.2487 187.594 31.2487C191.266 31.2487 191.691 30.8596 191.691 28.5636C191.691 23.3879 174.609 27.5518 174.609 15.994C174.609 4.43622 180.753 6.84896 186.589 6.84896C192.425 6.84896 198.84 9.57301 199.188 16.6556L191.536 17.0447C191.381 13.9704 188.869 12.8419 186.512 12.8419C184.154 12.8419 182.531 13.1143 182.531 15.2935C182.531 19.6909 200.038 16.2275 200.038 27.6685C200.038 39.1096 193.314 37.3973 187.053 37.3973C180.792 37.3973 173.758 34.6733 173.758 27.007V26.6567L181.526 26.3843L181.488 26.4622Z"></path>
</g>
<defs>
<clipPath id="clip0_1043_33">
<rect fill="white" height="66" width="200"></rect>
</clipPath>
</defs>
</svg>
