<svg xmlns="http://www.w3.org/2000/svg" fill="none" viewBox="0 0 215 185" height="185" width="215">
<path fill="#FFE7EA" d="M79.3589 58.866C96.9359 45.9971 113.362 46.1802 119.378 47.8804C114.205 47.8804 100.293 50.9407 86.0287 63.1818C68.1985 78.4833 72.2966 118.502 95.0526 131.842C113.257 142.514 132.718 136.289 140.172 131.842C131.279 139.689 107.529 151.459 83.6746 135.766C53.8565 116.148 57.3876 74.9522 79.3589 58.866Z"></path>
<path stroke-linejoin="round" stroke-linecap="round" stroke-width="0.5" stroke="#8BC3F5" fill="#8BC3F5" d="M55.4894 95.6809C55.4894 69.5958 74.383 46.7022 100.553 42.7447C108.851 41.5107 117.064 42.2341 124.979 44.8724L124.468 47.5958C121.447 47.4681 118.383 47.6384 115.404 48.1064C90.1277 51.8937 72.5106 75.0426 76.1277 99.6384C77.8298 111.34 84.0851 121.681 93.6596 128.787C103.66 136.192 116 139.213 128.511 137.34C133.362 136.617 138.043 135.17 142.383 133L143.957 135.298C136.213 142.489 126.553 147.128 116.128 148.702C102.298 150.787 88.4681 147.34 77.1915 138.958C65.7021 130.447 58.2128 117.894 56.1277 103.596C55.7447 100.958 55.5319 98.2766 55.5319 95.6809L55.4894 95.6809ZM114.766 45.3405C110.213 44.7447 105.574 44.7873 100.936 45.4681C73.6596 49.5958 54.766 75.4681 58.8085 103.128C60.8085 116.66 67.8724 128.575 78.766 136.66C89.4468 144.575 102.511 147.851 115.617 145.894C122.426 144.872 128.851 142.447 134.638 138.83C132.723 139.34 130.809 139.766 128.851 140.064C115.617 142.064 102.511 138.83 91.9149 131C81.7021 123.426 75.1064 112.447 73.2766 100.021C69.4468 73.9362 88.0426 49.4681 114.723 45.3405L114.766 45.3405Z"></path>
<path fill="#8BC3F5" d="M101.192 105C101.192 104.617 101.362 104.234 101.66 103.936L116.085 90.7022L102.596 90.7022C101.787 90.7022 101.149 90.0639 101.149 89.2554C101.149 88.4469 101.787 87.8086 102.596 87.8086L119.745 87.8086C120.341 87.8086 120.851 88.149 121.064 88.7022C121.277 89.2554 121.149 89.8937 120.681 90.2767L106.255 103.511L119.745 103.511C120.553 103.511 121.192 104.149 121.192 104.958C121.192 105.766 120.553 106.404 119.745 106.404L102.596 106.404C102 106.404 101.489 106.064 101.277 105.511C101.192 105.341 101.192 105.17 101.192 105Z"></path>
<path fill="#8BC3F5" d="M126.894 89.2979C126.894 88.9149 127.064 88.5319 127.362 88.234L137.107 79.2979L128.298 79.2978C127.49 79.2978 126.851 78.6596 126.851 77.851C126.851 77.0425 127.49 76.4042 128.298 76.4042L140.766 76.4042C141.362 76.4042 141.873 76.7447 142.085 77.2979C142.298 77.851 142.17 78.4893 141.702 78.8723L131.958 87.8085L140.766 87.8085C141.575 87.8085 142.213 88.4468 142.213 89.2553C142.213 90.0638 141.575 90.7021 140.766 90.7021L128.298 90.7021C127.702 90.7021 127.192 90.3617 126.979 89.8085C126.894 89.6383 126.894 89.4681 126.894 89.2979Z"></path>
<path fill="#8BC3F5" d="M148.34 75C148.34 74.617 148.511 74.2341 148.809 73.9362L155.447 67.8511L149.787 67.8511C148.979 67.8511 148.34 67.2128 148.34 66.4043C148.34 65.5958 148.979 64.9575 149.787 64.9575L159.149 64.9575C159.745 64.9575 160.255 65.2979 160.468 65.8511C160.681 66.4043 160.553 67.0426 160.085 67.4255L153.447 73.5106L159.106 73.5106C159.915 73.5106 160.553 74.1489 160.553 74.9575C160.553 75.766 159.915 76.4043 159.106 76.4043L149.745 76.4043C149.149 76.4043 148.638 76.0638 148.426 75.5106C148.34 75.3404 148.34 75.1702 148.34 75Z"></path>
</svg>
