<svg xmlns="http://www.w3.org/2000/svg" fill="none" viewBox="0 0 200 38" height="38" width="200">
<g clip-path="url(#clip0_1043_141)">
<path fill="white" d="M190.579 6.76969C191.413 3.29133 192.303 1.70177 195.122 0.654527V0.542323H184.719V0.654527C186.184 1.34646 186.703 2.18799 186.703 3.60925C186.703 4.45079 186.5 5.46064 186.184 6.76969L180.119 31.2491C179.286 34.7274 178.395 36.317 175.577 37.3642V37.4764H195.549L199.314 26.817H199.201C194.399 33.8858 191.877 36.2608 186.017 36.2608H183.291L190.579 6.76969ZM178.192 7.55511C179.229 3.49704 181.122 1.70177 183.941 0.654527V0.542323H174.519V0.654527C176.188 1.40256 177.19 2.59941 177.19 4.7687C177.19 5.55414 177.079 6.39567 176.819 7.40551L171.998 26.817C170.7 32.0905 167.807 35.7746 163.374 35.7746C159.611 35.7746 157.997 33.3996 157.997 29.9774C157.997 28.8741 158.145 27.7146 158.461 26.4429L163.319 6.76969C164.21 3.29133 165.043 1.70177 167.862 0.654527V0.542323H157.459V0.654527C158.924 1.34646 159.5 2.18799 159.5 3.66535C159.5 4.45079 159.295 5.51673 158.98 6.76969L154.01 26.817C153.75 27.9764 153.584 29.0423 153.584 30.0334C153.584 34.7834 156.514 38 161.799 38C168.122 38 171.849 33.3622 173.407 26.9852L178.192 7.55511ZM133.259 30.2392C133.259 27.2283 133.778 23.3385 134.835 19C137.339 8.97638 140.584 1.21555 145.553 1.21555C148.225 1.21555 149.318 3.74016 149.318 7.76082C149.318 10.7717 148.799 14.6801 147.742 19C145.239 29.0236 141.993 36.7845 137.024 36.7845C134.353 36.7845 133.259 34.2411 133.259 30.2392ZM128.864 26.125C128.864 33.3061 131.998 38 137.024 38C146.277 38 153.714 23.8622 153.714 11.8936C153.714 4.71259 150.579 0.0187007 145.553 0.0187007C136.301 0.0187007 128.864 14.1565 128.864 26.125ZM128.345 11.6693H128.456L131.331 0.0187007C130.588 0.804133 130.069 1.32776 128.919 1.32776C127.51 1.32776 125.99 0 122.652 0C116.644 0 112.249 4.63779 112.249 11.2392C112.249 19.3553 121.985 20.5708 121.985 28.2195C121.985 32.6516 119.741 36.7657 114.975 36.7657C110.895 36.7657 108.336 32.4458 107.91 25.2086H107.798L105.388 37.9626C106.333 36.9153 107.057 36.373 108.113 36.373C109.69 36.373 111.247 37.9626 114.975 37.9626C121.039 37.9626 126.119 33.0069 126.119 25.938C126.119 17.9715 116.236 16.2323 116.236 8.75197C116.236 4.78741 118.591 1.21555 122.67 1.21555C127.51 1.23425 127.974 6.50788 128.345 11.6693ZM82.8936 20.3839L76.7741 5.92815C76.2548 4.71259 76.0323 3.81496 76.0323 3.14173C76.0323 1.83268 76.7741 1.25295 77.8126 0.654527V0.542323H68.5034V0.654527C70.432 1.98228 71.0068 3.29133 72.0639 5.61024L79.3331 22.123V31.6792C79.3331 35.1575 78.5914 36.373 76.0879 37.3829V37.4951H86.8064V37.3829C84.303 36.373 83.5612 35.1761 83.5612 31.6792V22.123L90.8305 5.61024C91.8689 3.29133 92.6664 1.87008 94.6506 0.654527V0.542323H87.27V0.654527C88.8462 1.34646 89.6251 2.3937 89.6251 3.92717C89.6251 4.71259 89.3654 5.72244 88.8833 6.76969L82.8936 20.3839ZM55.3928 36.2047V1.81398H55.9677C62.8289 1.81398 67.5206 7.46161 67.5206 18.5885C67.5206 31.4547 62.8105 36.2047 56.5796 36.2047H55.3928ZM48.0123 37.4764H57.0061C64.739 37.4764 72.3791 31.4173 72.3791 18.5885C72.3791 6.67618 65.0542 0.542323 56.0047 0.542323H48.0123V0.654527C50.5714 1.70177 51.0535 3.29133 51.0535 6.76969V31.2491C51.0535 34.7274 50.5899 36.317 48.0123 37.3642V37.4764ZM42.8756 19C42.8756 29.0236 41.0397 36.7657 36.1812 36.7657C31.3226 36.7657 29.5424 29.0049 29.5424 18.9814C29.5424 8.95768 31.3226 1.19685 36.1812 1.19685C41.0397 1.19685 42.8756 8.99507 42.8756 19ZM48.105 19C48.105 7.92913 42.616 0.0187007 36.1812 0.0187007C29.7464 0.0187007 24.313 7.92913 24.313 19C24.313 30.0708 29.7464 37.9814 36.1812 37.9814C42.616 38 48.105 30.0896 48.105 19ZM7.90152 36.2982V19.2057H9.94137C15.2264 19.2057 18.5273 22.0482 18.5273 27.752C18.5273 33.4557 15.2264 36.2982 9.95991 36.2982H7.90152ZM7.90152 18.065V1.70177H9.16251C13.984 1.70177 16.8954 4.6565 16.8954 9.98622C16.8954 15.3159 13.9654 18.065 9.16251 18.065H7.90152ZM10.7758 37.4764C18.1564 37.4764 23.1633 34.8396 23.1633 27.7706C23.1633 21.7117 17.4147 18.6447 12.7044 18.439C17.4702 17.9715 21.3831 15.0542 21.3831 10.0049C21.3831 3.40354 16.4688 0.561024 9.83011 0.561024H0.520996V0.673228C3.08007 1.72047 3.56222 3.31004 3.56222 6.78839V31.2677C3.56222 34.746 3.09862 36.3356 0.520996 37.3829V37.4951H10.7758V37.4764Z"></path>
<path fill="white" d="M99.5088 8.90137H100.621V27.9388H99.5088V8.90137Z"></path>
<path fill="white" d="M90.6274 17.8594H109.505V18.9813H90.6274V17.8594Z"></path>
</g>
<defs>
<clipPath id="clip0_1043_141">
<rect fill="white" height="38" width="200"></rect>
</clipPath>
</defs>
</svg>
