<svg viewBox="0 0 202 53" version="1.1" xmlns="http://www.w3.org/2000/svg">
  <defs>
    <style>
      .cls-1 {
        fill: #fff;
        fill-rule: evenodd;
      }
    </style>
  </defs>
  
  <g>
    <g id="Layer_1">
      <path d="M1.4,1.7h17.5v.5h-4.3l13.1,35.6L38.8,2.2h-4.3v-.5h9.5v.5h-4.2l-15.6,49.2L6,2.2H1.4v-.5Z" class="cls-1"></path>
      <path d="M119.5.9v17.1h-.4c-.7-3.4-1.8-6.6-3.6-9.6-2.2-3.5-5.6-7.4-10.1-7.4-10.3,0-11.2,18.4-11.2,25.4s.5,12.7,2.8,18.6c1.6,4.1,3.9,6.1,8.2,6.1s7.1-1.7,8.9-4.7c.5-.8.5-1.6.5-2.5v-13.2h-4.5v-.5h16.5v.5h-3.9v19.8h-.3c-1-1.6-2.5-2.7-4.5-2.7s-2.8.5-4.1,1.2l-1.1.6c-2.5,1.1-4.9,1.9-7.7,1.9-12.8,0-19.6-13.6-19.6-24.8s3.2-17,9.9-22.2c3-2.3,6.6-4,10.5-4s3,.5,4.4,1l1,.4c1.2.4,2.4.8,3.7.8s3-1,4.2-1.9h.4Z" class="cls-1"></path>
      <path d="M124.4,1.7h17.6v.5h-4.7v38c0,6,6.2,9.6,11.6,9.6s10.7-4,10.7-9.9V2.2h-5.5v-.5h45.4v17.6h-.3c-.5-4.7-1.4-9.4-4.6-13.1-3.3-3.7-7.7-4-12.3-4h-4.9v22.6c1,.1,2,.2,3.1.2,6.2,0,7.8-4.2,8.1-9.5h.4v19.9h-.4c-.8-4.7-2.9-9.8-8.5-9.8s-1.7,0-2.6.1v24.2h7.4c3.8,0,7.6-1.6,10.3-4.3,2.3-2.3,3.9-5.2,4.5-8.4.3-1.8.4-3.6.5-5.4h.4v18.5h-35.5v-.5h4.1V2.2h-8.7v37.8c0,7.8-7.5,11.3-14.5,11.3s-16.6-3.8-16.6-12.8V2.2h-4.8v-.5h0Z" class="cls-1"></path>
      <path d="M75,8.3c-3.5-4.4-9.1-7.7-14.8-7.7s-11.9,3.5-15.7,8.3c-3.8,4.9-5.6,10.9-5.6,17.3s2,12.9,6.1,18c3.6,4.4,9.2,7.7,15,7.7h0c6.2,0,11.8-3.5,15.5-8.3,3.8-4.9,5.6-10.9,5.6-17.3s-2-12.9-6.1-18ZM59.9,51.2c-9.7,0-12.2-17.8-12.2-24.9S50.3,1.4,59.9,1.4s12.2,17.8,12.2,24.9-2.5,24.9-12.2,24.9Z" class="cls-1"></path>
    </g>
  </g>
</svg>