<svg xmlns="http://www.w3.org/2000/svg" fill="none" viewBox="0 0 129 60" height="60" width="129">
<g clip-path="url(#clip0_1043_142)">
<path fill="white" d="M127.577 32.0779C127.462 30.8798 127.387 29.6785 127.233 28.4864C126.908 25.9604 126.334 23.4927 125.312 21.1454C124.392 19.0298 123.185 17.1173 121.445 15.5502C119.576 13.8669 117.392 12.8424 114.963 12.2931C113.363 11.9325 111.738 11.8474 110.1 11.8549C108.33 11.8634 106.594 12.0681 104.891 12.5475C101.473 13.5105 98.7909 15.4837 96.8305 18.4232C95.4348 20.5152 94.5692 22.8355 93.9665 25.2595C93.2699 28.0574 92.9689 30.9128 92.8632 33.7832C92.8016 35.4616 92.8962 37.1449 92.9259 38.8257C92.9537 40.4399 93.1626 42.0364 93.4439 43.6221C93.9394 46.4117 94.7349 49.1027 96.1036 51.6083C97.1087 53.4477 98.3547 55.0846 99.9592 56.4529C102.036 58.2246 104.442 59.2669 107.112 59.7454C107.703 59.8516 108.303 59.9164 108.899 60.0008H111.687C112.35 59.8887 113.018 59.8045 113.674 59.6603C116.134 59.1186 118.347 58.0697 120.285 56.452C122.683 54.4519 124.349 51.9421 125.49 49.0673C126.432 46.6966 127.03 44.2364 127.322 41.7046C127.426 40.8023 127.491 39.8948 127.579 38.9909C127.588 38.8956 127.629 38.8037 127.655 38.7111V32.3999C127.628 32.2919 127.587 32.1867 127.577 32.0779ZM114.126 40.4348C114.084 42.1266 114.008 43.8218 113.626 45.4816C113.382 46.5422 113.058 47.5701 112.205 48.3327C111.647 48.8331 110.973 48.9916 110.25 48.9469C108.675 48.8491 107.759 47.9123 107.222 46.5222C106.769 45.3477 106.557 44.1184 106.457 42.8731C106.37 41.7854 106.304 40.6952 106.284 39.6049C106.238 37.1254 106.166 34.6442 106.22 32.1664C106.262 30.2117 106.345 28.2445 106.877 26.3387C107.157 25.3302 107.556 24.3874 108.348 23.6427C109.561 22.5027 111.726 22.7101 112.674 24.0715C113.327 25.0075 113.612 26.0708 113.794 27.1694C114.042 28.6784 114.139 30.1999 114.136 31.7282C114.133 33.0602 114.135 34.3924 114.135 35.7235C114.135 37.294 114.165 38.8652 114.126 40.4348Z"></path>
<path fill="white" d="M54.8055 0.583874C54.6922 1.38848 54.5739 2.19224 54.4572 2.99601C54.1301 5.2548 53.8021 7.5136 53.475 9.77324C53.1478 12.032 52.8199 14.2908 52.4944 16.5505C52.1444 18.9761 51.7985 21.4016 51.4469 23.8273C51.1511 25.8645 50.8451 27.9 50.5508 29.9381C50.2541 31.9888 49.9692 34.0419 49.6734 36.0936C49.3817 38.1173 49.0824 40.1393 48.7891 42.1631C48.4924 44.2138 48.2007 46.2662 47.904 48.3176C47.6386 50.1611 47.369 52.0037 47.1018 53.8472C46.8618 55.5103 46.6198 57.1734 46.3858 58.8373C46.3114 59.3674 46.2826 59.4103 45.7686 59.4103C41.3331 59.4103 36.8974 59.4103 32.4627 59.4103C31.9681 59.4103 31.9208 59.3631 31.8533 58.8711C31.4922 56.2356 31.1269 53.6003 30.7685 50.964C30.4169 48.3699 30.077 45.774 29.722 43.1799C29.4608 41.2658 29.1785 39.354 28.9147 37.4398C28.6189 35.2907 28.3347 33.1388 28.0423 30.9887C27.8698 29.7158 27.6914 28.4443 27.4684 27.1704C27.3254 28.2219 27.1792 29.2733 27.038 30.3248C26.8529 31.7124 26.6712 33.1009 26.4885 34.4886C26.2747 36.1129 26.0632 37.7364 25.8486 39.3608C25.6727 40.6928 25.4936 42.0249 25.3176 43.3577C25.0987 45.009 24.8841 46.6605 24.6642 48.3118C24.4849 49.6581 24.2974 51.0028 24.1191 52.3491C23.9052 53.9591 23.6963 55.5692 23.4849 57.1793C23.4004 57.8179 23.3108 58.4558 23.2297 59.0944C23.2043 59.2948 23.1003 59.3976 22.9008 59.4053C22.7883 59.4103 22.6759 59.4111 22.5636 59.4111H9.4689C9.38436 59.4111 9.29982 59.406 9.21529 59.4111C8.94477 59.4255 8.80192 59.3124 8.76471 59.0329C8.66665 58.2973 8.55083 57.5644 8.44348 56.8296C8.1459 54.7924 7.84834 52.7561 7.55331 50.7188C7.28618 48.8754 7.02327 47.0312 6.75698 45.1877C6.489 43.3307 6.21679 41.4739 5.94881 39.6169C5.65293 37.5654 5.3613 35.5131 5.06542 33.4624C4.79912 31.6189 4.52861 29.7756 4.26233 27.9321C3.96561 25.8814 3.67226 23.829 3.37638 21.7783C3.1101 19.9348 2.84127 18.0914 2.57499 16.248C2.27827 14.1965 1.98408 12.1449 1.68736 10.0934C1.41938 8.23649 1.14633 6.3804 0.879194 4.52265C0.688143 3.19064 0.502165 1.85945 0.317031 0.528269C0.303505 0.435591 0.315339 0.338701 0.315339 0.203056C0.475112 0.189576 0.624741 0.16767 0.77437 0.16767C4.63174 0.165143 8.48996 0.165143 12.3482 0.16767C12.8732 0.16767 12.8774 0.192104 12.9315 0.701828C13.082 2.12147 13.2485 3.5386 13.4057 4.95655C13.53 6.08384 13.6492 7.21112 13.7726 8.33759C13.9011 9.50532 14.0338 10.673 14.1632 11.8416C14.2866 12.9537 14.4083 14.0667 14.5309 15.1797C14.6552 16.3061 14.7778 17.4334 14.902 18.5599C15.0322 19.7419 15.1615 20.9241 15.2926 22.1061C15.4194 23.2459 15.5504 24.3859 15.6764 25.5266C15.8032 26.6809 15.9266 27.8361 16.0526 28.9903C16.176 30.1166 16.3011 31.2431 16.4245 32.3704C16.5547 33.5526 16.6832 34.7346 16.8142 35.9166C16.8531 36.273 16.8971 36.6285 16.9385 36.984C16.9672 36.9857 16.9951 36.9866 17.0239 36.9883C17.0898 36.5166 17.1608 36.0456 17.2208 35.5736C17.4457 33.7969 17.6714 32.0192 17.8904 30.2406C18.1846 27.8513 18.4661 25.461 18.7637 23.0715C19.0282 20.9468 19.3132 18.8235 19.5786 16.6987C19.8465 14.5461 20.0967 12.3909 20.3648 10.2383C20.6015 8.33505 20.855 6.43433 21.0934 4.53192C21.2506 3.28163 21.3977 2.03048 21.5406 0.779339C21.6049 0.215693 21.6438 0.166827 22.2093 0.166827C25.7716 0.165985 29.334 0.165985 32.8963 0.166827C33.4738 0.166827 33.4779 0.168513 33.5566 0.718677C33.9421 3.42233 34.3276 6.12512 34.7096 8.82876C35.0207 11.0328 35.326 13.2385 35.6345 15.4434C36.086 18.6744 36.5373 21.9054 36.9888 25.1366C37.2989 27.3549 37.6117 29.5742 37.9187 31.7925C38.1537 33.4851 38.382 35.1776 38.6144 36.8694C38.6187 36.9049 38.6422 36.9377 38.7217 36.9748C38.7665 36.5528 38.8148 36.1307 38.8553 35.7077C38.9653 34.566 39.0733 33.4236 39.1773 32.2821C39.2721 31.2373 39.3558 30.1909 39.453 29.1461C39.5503 28.1014 39.6609 27.0583 39.7615 26.0145C39.8309 25.2898 39.8892 24.5646 39.9567 23.8408C40.0592 22.7404 40.1682 21.6409 40.2695 20.5406C40.365 19.4959 40.4531 18.4503 40.5503 17.4056C40.6466 16.3609 40.7522 15.317 40.852 14.2723C40.9214 13.5342 40.9855 12.7953 41.0549 12.0573C41.1581 10.957 41.2663 9.85748 41.3677 8.75715C41.4632 7.72675 41.5511 6.69467 41.6466 5.66427C41.7489 4.56394 41.8554 3.46444 41.9594 2.36412C42.0153 1.77941 42.0566 1.19217 42.1319 0.609993C42.1886 0.169355 42.2088 0.169355 42.6704 0.16767C43.3603 0.165143 44.0499 0.166827 44.7398 0.166827H54.0751C54.2019 0.166827 54.3288 0.162615 54.4556 0.169355C54.7887 0.186205 54.8521 0.257819 54.8055 0.583874Z"></path>
<path fill="white" d="M90.9053 58.8646C90.9053 59.3408 90.6675 59.5793 90.1919 59.5799H77.9847C77.8589 59.5799 77.732 59.5765 77.6052 59.5756C77.3947 59.5739 77.2992 59.4627 77.2992 59.2589C77.2992 59.1046 77.2967 58.9504 77.2967 58.7963C77.2967 49.3448 77.3076 39.8935 77.2848 30.4422C77.2814 28.9744 77.1791 27.4992 76.6414 26.0997C76.3692 25.3937 76.0084 24.7501 75.3296 24.3499C73.741 23.4147 71.7138 24.0027 70.8161 25.612C70.2472 26.6314 70.0316 27.7377 69.8777 28.864C69.8069 29.389 69.7865 29.9239 69.7856 30.4547C69.7805 39.9061 69.7822 49.3576 69.7822 58.8089C69.7822 59.3222 69.5277 59.5793 69.0189 59.5799H56.8551C56.7281 59.5799 56.6014 59.5756 56.4746 59.5772C56.2075 59.5799 56.0925 59.4407 56.0968 59.1839C56.0985 59.0717 56.0951 58.9596 56.0951 58.8477V0.835133C56.0951 0.736557 56.1002 0.638826 56.0951 0.54025C56.0824 0.273171 56.2084 0.151849 56.4754 0.166172C56.5745 0.172069 56.6724 0.166172 56.7713 0.166172H69.1043C69.231 0.166172 69.358 0.168699 69.4848 0.170384C69.6715 0.173755 69.7704 0.268116 69.7764 0.455157C69.7798 0.595857 69.7815 0.735715 69.7815 0.875573C69.7822 6.12026 69.7822 11.3649 69.7822 16.6096V17.1632C70.2735 16.6282 70.697 16.1429 71.1459 15.682C73.048 13.7299 75.3557 12.6574 78.0889 12.4375C79.9444 12.2883 81.7712 12.3793 83.5667 12.8629C85.9616 13.5083 87.7444 14.9271 88.9009 17.1252C89.8047 18.8414 90.2543 20.6899 90.4699 22.5916C90.6458 24.1469 90.7354 25.7131 90.8157 27.2768C90.8825 28.5632 90.901 29.8523 90.9019 31.1406C90.9087 40.3821 90.9053 49.6229 90.9053 58.8646Z"></path>
<path fill="white" d="M101.053 5.09983C101.672 6.02829 102.258 6.91041 102.848 7.79674C102.298 8.04529 101.909 7.95514 101.626 7.52291C101.033 6.61974 100.448 5.71236 99.8627 4.80411C99.8138 4.72744 99.7857 4.63644 99.7038 4.45614C100.045 4.45614 100.319 4.46878 100.592 4.45363C101.359 4.41234 101.89 4.02394 102.129 3.34487C102.372 2.65738 102.186 1.88563 101.657 1.41887C101.362 1.15853 101.011 1.02289 100.617 1.01614C100.153 1.00856 99.6877 1.00856 99.2237 1.01362C98.801 1.01783 98.7655 1.05069 98.7646 1.47195C98.7612 3.29432 98.7629 5.11669 98.7629 6.93821C98.7629 7.09239 98.7638 7.24657 98.7621 7.40076C98.7571 7.88016 98.7012 7.92142 98.2269 7.91807C97.9378 7.91638 97.8262 7.80096 97.8272 7.51618C97.8322 5.20346 97.8296 2.89074 97.8296 0.578876C97.8296 0.36909 97.8483 0.167727 98.1289 0.17194C99.14 0.18542 100.155 0.156775 101.163 0.232601C102.344 0.321065 103.051 1.3026 103.144 2.45012C103.222 3.42744 102.894 4.25226 102.004 4.76366C101.744 4.9128 101.432 4.96924 101.053 5.09983Z"></path>
<path fill="white" d="M110.425 7.25228C109.502 5.03899 108.572 2.82906 107.663 0.611551C107.531 0.288865 107.362 0.15996 107.011 0.154905C106.649 0.14985 106.49 0.304874 106.36 0.616606C105.459 2.79199 104.542 4.96148 103.631 7.13434C103.536 7.36097 103.452 7.59351 103.348 7.86227C103.509 7.88417 103.615 7.9086 103.722 7.91198C104.305 7.93472 104.313 7.93641 104.543 7.41237C104.739 6.96246 104.923 6.50749 105.099 6.04917C105.186 5.82254 105.321 5.72144 105.572 5.72479C106.501 5.73407 107.43 5.73407 108.36 5.72479C108.638 5.72228 108.798 5.82758 108.897 6.0913C109.084 6.59007 109.287 7.08379 109.51 7.56739C109.572 7.70219 109.714 7.85974 109.845 7.88924C110.081 7.94063 110.337 7.90356 110.677 7.90356C110.565 7.61288 110.499 7.43091 110.425 7.25228ZM105.544 4.93367C106.023 3.71708 106.48 2.55355 106.937 1.39004C106.966 1.38498 106.995 1.37909 107.025 1.37403C107.487 2.54009 107.95 3.70697 108.436 4.93367H105.544Z"></path>
<path fill="white" d="M79.9365 7.49783C78.9746 5.16658 78.0049 2.83869 77.0538 0.503229C76.922 0.178016 76.7005 0.163693 76.4189 0.161166C76.1392 0.159481 75.9566 0.221828 75.8349 0.515867C74.9887 2.56151 74.1214 4.59787 73.2642 6.63846C73.0984 7.03275 72.9454 7.43211 72.7671 7.87864C72.9606 7.89465 73.0823 7.91151 73.2049 7.91319C73.7561 7.92246 73.7604 7.91739 73.9733 7.4001C74.1442 6.98557 74.3394 6.57947 74.4856 6.15652C74.5948 5.84143 74.7714 5.71674 75.1061 5.72263C75.9777 5.73864 76.8502 5.74033 77.7226 5.72263C78.0591 5.71506 78.2399 5.85154 78.3548 6.15148C78.5409 6.63508 78.7353 7.11701 78.9552 7.58629C79.0159 7.71688 79.1621 7.86347 79.2941 7.89296C79.5172 7.94351 79.7608 7.90729 80.0676 7.90729C80.0042 7.70509 79.978 7.59808 79.9365 7.49783ZM74.9625 4.93573C75.4426 3.72418 75.9033 2.56151 76.3641 1.39883C76.3944 1.39714 76.4249 1.39546 76.4554 1.39377C76.9203 2.55645 77.3853 3.71828 77.8714 4.93573H74.9625Z"></path>
<path fill="white" d="M124.902 7.31641C124.723 6.87577 124.538 6.43683 124.355 5.99618C123.599 4.17128 122.836 2.34892 122.094 0.518122C121.966 0.201335 121.759 0.160894 121.469 0.159209C121.17 0.157524 120.969 0.228296 120.845 0.53076C119.885 2.84768 118.913 5.15956 117.948 7.47397C117.898 7.59359 117.873 7.72418 117.826 7.88596C118.015 7.89775 118.138 7.91208 118.263 7.91292C118.789 7.91881 118.796 7.91123 119 7.41582C119.176 6.98868 119.373 6.56909 119.528 6.13435C119.634 5.83525 119.806 5.71816 120.121 5.7232C120.994 5.73668 121.866 5.74259 122.738 5.72067C123.096 5.71225 123.278 5.86053 123.398 6.17395C123.582 6.6584 123.783 7.13695 123.996 7.6096C124.046 7.72334 124.163 7.86826 124.268 7.88512C124.52 7.92556 124.784 7.8986 125.114 7.8986C125.025 7.6492 124.969 7.4807 124.902 7.31641ZM119.991 4.92533C120.476 3.71296 120.94 2.55027 121.445 1.28903C121.948 2.54354 122.413 3.70452 122.904 4.92533H119.991Z"></path>
<path fill="white" d="M86.0789 5.05227C86.0746 5.44065 86.0197 5.83581 85.9361 6.21578C85.7357 7.12232 84.9258 7.83342 84.0095 7.99855C82.7447 8.22602 81.6374 7.63795 81.2197 6.87632C80.9771 6.43315 80.8537 5.96387 80.8503 5.46846C80.841 3.85673 80.8426 2.24498 80.8537 0.633246C80.8546 0.486648 80.9264 0.238105 81.0143 0.213672C81.2173 0.158065 81.4684 0.165648 81.6645 0.239789C81.749 0.272648 81.7752 0.534672 81.7759 0.692223C81.7845 2.20622 81.7786 3.71939 81.7829 5.23339C81.7836 5.71701 81.8657 6.1846 82.1742 6.57975C82.6146 7.1434 83.329 7.34391 84.0323 7.11053C84.6063 6.92097 85.0544 6.31604 85.0662 5.65551C85.083 4.80119 85.0703 3.94604 85.0703 3.09087H85.0729C85.0729 2.26437 85.0696 1.43701 85.0746 0.610499C85.078 0.196821 85.1253 0.16312 85.5936 0.165648C86.0316 0.168175 86.083 0.203562 86.0847 0.595332C86.089 2.08069 86.0958 3.56689 86.0789 5.05227Z"></path>
<path fill="white" d="M90.5639 7.87251C89.9348 8.11009 89.2991 8.1261 88.6659 7.90958C87.7801 7.60626 87.3118 6.95331 87.1426 6.05771C87.1029 5.84456 87.1704 5.74766 87.3903 5.7207C87.9145 5.65836 88.0134 5.71566 88.1918 6.23801C88.4606 7.02578 89.2806 7.42091 90.0608 7.13698C90.8867 6.83704 91.2696 6.05434 90.9662 5.29018C90.7886 4.84196 90.3913 4.64987 89.9856 4.48809C89.5814 4.32718 89.1587 4.21176 88.747 4.06853C87.4858 3.63126 86.9431 2.50228 87.4546 1.28653C87.7784 0.516465 88.5737 0.00337007 89.6042 0C90.7159 0.00252756 91.5596 0.629363 91.7684 1.63028C91.7972 1.76592 91.7668 1.97908 91.6772 2.06079C91.5183 2.20318 91.0008 2.09704 90.9069 1.9479C90.8707 1.88893 90.8452 1.82068 90.8275 1.75328C90.5469 0.683284 89.3372 0.631046 88.6736 1.13319C88.1054 1.56287 87.9719 2.64467 88.7734 3.0516C89.2595 3.29846 89.7902 3.45771 90.2864 3.68687C90.6525 3.85538 91.0279 4.03314 91.3431 4.27748C92.5191 5.19161 92.1167 7.28441 90.5639 7.87251Z"></path>
<path fill="white" d="M97.1593 0.585948C97.1593 0.819325 97.1289 1.0131 96.8288 1.00889C96.6886 1.00721 96.5473 1.00299 96.407 1.01226C96.0342 1.03754 95.6622 1.06871 95.2894 1.09736C95.2659 1.47059 95.2227 1.84299 95.221 2.21622C95.2133 3.84145 95.2176 5.46666 95.2176 7.09272V7.34464C95.2143 7.87459 95.1795 7.91586 94.7383 7.91335C94.3189 7.91082 94.2834 7.87206 94.2826 7.36317C94.281 6.39597 94.2826 5.42959 94.2826 4.46237C94.2826 3.46821 94.2851 2.47319 94.281 1.47818C94.2793 1.05355 94.2421 1.019 93.8278 1.01226C93.4761 1.00721 93.1245 1.00384 92.7728 1.01058C92.449 1.01732 92.4194 0.815956 92.4194 0.566569C92.4185 0.318027 92.4871 0.164688 92.7737 0.165531C94.1245 0.169744 95.4745 0.168901 96.8254 0.166373C97.1238 0.166373 97.1593 0.351728 97.1593 0.585948Z"></path>
<path fill="white" d="M114.883 7.91164C113.885 7.91668 112.886 7.91668 111.888 7.91164C111.472 7.90911 111.433 7.87035 111.432 7.44825C111.428 6.29989 111.431 5.15154 111.431 4.00318C111.431 2.85482 111.425 1.76208 111.437 0.641529C111.439 0.493245 111.502 0.243017 111.59 0.217742C111.792 0.157923 112.037 0.171403 112.241 0.232907C112.317 0.255656 112.358 0.496616 112.36 0.63816C112.37 1.5624 112.365 2.48664 112.365 3.41089C112.365 4.47583 112.363 5.53993 112.367 6.60403C112.368 7.02866 112.403 7.06237 112.822 7.06573C113.511 7.07079 114.2 7.06322 114.889 7.06911C115.266 7.07332 115.316 7.12725 115.321 7.47184C115.327 7.8417 115.268 7.90995 114.883 7.91164Z"></path>
<path fill="white" d="M117.013 4.0825C117.014 5.17609 117.014 6.27051 117.013 7.3641C117.012 7.87973 116.801 8.04233 116.305 7.89405C116.219 7.86878 116.141 7.76262 116.096 7.675C116.06 7.60675 116.079 7.50987 116.079 7.4256C116.079 5.16765 116.077 2.9097 116.079 0.651758C116.08 0.206909 116.129 0.163097 116.557 0.165624C116.963 0.168152 117.01 0.209436 117.012 0.63238C117.015 1.78242 117.013 2.93247 117.013 4.0825Z"></path>
</g>
<defs>
<clipPath id="clip0_1043_142">
<rect fill="white" height="60" width="129"></rect>
</clipPath>
</defs>
</svg>
