<svg xmlns="http://www.w3.org/2000/svg" fill="none" viewBox="0 0 200 41" height="41" width="200">
<g clip-path="url(#clip0_1043_53)">
<path fill="white" d="M124.8 13.8205L126.896 33.5442H132.208L136.944 0.00830078H131.72L129.576 19.1497H129.328L127.144 0.00830078H122.448L120.144 19.1497H119.896L117.888 0.00830078H112.376L117.152 33.5442H122.464L124.608 13.8205H124.816H124.8ZM12.472 13.8205L14.568 33.5442H19.88L24.616 0.00830078H19.344L17.2 19.1497H16.952L14.776 0.00830078H10.08L7.816 19.1497H7.568L5.512 0.00830078H0L4.776 33.5442H10.088L12.232 13.8205H12.48H12.472ZM38.816 33.0428H43.592V19.1012C43.592 15.8988 44.376 14.6049 45.528 14.6049C46.68 14.6049 46.968 16.4326 46.968 18.9718V33.0752H51.744V19.0931C51.744 15.8907 52.528 14.5969 53.68 14.5969C54.832 14.5969 55.12 16.4245 55.12 18.9637V33.0671H59.896V18.2925C59.896 13.0523 59.24 9.63966 55.448 9.63966C51.656 9.63966 52.072 10.8446 51.328 12.6803H51.16C50.584 10.8042 49.512 9.63966 47.496 9.63966C45.48 9.63966 44.248 10.8446 43.584 12.5509H43.416V10.141H38.808V33.0266L38.816 33.0428ZM23.296 21.5596C23.296 29.5493 25.312 33.5442 30.456 33.5442C35.6 33.5442 37.616 29.5493 37.616 21.5596C37.616 13.5698 35.6 9.6154 30.456 9.6154C25.312 9.6154 23.296 13.6103 23.296 21.5596ZM165.592 33.0428H170.368V26.5491L171.48 24.5113L174.112 33.0833H179.256L174.48 18.9395L179.256 10.1572H174.192L170.32 18.3087V3.42092H165.544V33.0428H165.584H165.592ZM159.664 25.514C159.664 27.6328 159.088 29.3391 157.728 29.3391C156.368 29.3391 155.256 26.7594 155.256 23.0556H164.312C164.312 22.433 164.352 21.6809 164.352 21.0986C164.352 14.4028 163.16 9.65584 157.52 9.65584C151.88 9.65584 150.4 14.8152 150.4 21.6405C150.4 28.4657 152.744 33.5846 157.52 33.5846C162.296 33.5846 163.736 31.2556 164.232 26.3874L159.664 25.514ZM70.464 25.514C70.464 27.6328 69.888 29.3391 68.528 29.3391C67.168 29.3391 66.056 26.7594 66.056 23.0556H75.112C75.112 22.433 75.152 21.6809 75.152 21.0986C75.152 14.4028 73.96 9.65584 68.32 9.65584C62.68 9.65584 61.2 14.8152 61.2 21.6405C61.2 28.4657 63.544 33.5846 68.32 33.5846C73.096 33.5846 74.536 31.2556 75.032 26.3874L70.464 25.514ZM144.72 25.514C144.72 27.6328 144.144 29.3391 142.784 29.3391C141.424 29.3391 140.312 26.7594 140.312 23.0556H149.368C149.368 22.433 149.408 21.6809 149.408 21.0986C149.408 14.4028 148.216 9.65584 142.576 9.65584C136.936 9.65584 135.456 14.8152 135.456 21.6405C135.456 28.4657 137.8 33.5846 142.576 33.5846C147.352 33.5846 148.792 31.2556 149.288 26.3874L144.72 25.514ZM185.056 10.1168L189.792 32.1694C190 33.0024 190.12 33.8353 190.12 34.458C190.12 36.043 189.296 36.7466 187.816 36.7466C186.336 36.7466 186.544 36.6657 186.208 36.5363L185.424 40.7414C186.408 40.9517 187.192 40.9921 187.896 40.9921C192.176 40.9921 193.696 38.7844 194.48 35.1696L199.992 10.1249H195.096L193.408 20.2333C193.16 21.6081 192.872 23.1042 192.712 24.4385H192.464C192.344 23.1527 192.096 21.689 191.888 20.3223L190.368 10.1249H185.056V10.1168ZM89.568 18.5675C89.568 13.3272 88.912 9.62349 85.208 9.62349C81.504 9.62349 81.872 10.8284 81.136 12.6641H80.968V10.1249H76.36V33.0509H81.096V19.1093C81.096 15.9069 81.92 14.613 83.24 14.613C84.56 14.613 84.808 16.4406 84.808 18.9799V33.0833H89.584V18.5594L89.568 18.5675ZM105.904 16.0282C105.784 11.9525 104.136 9.62349 100.104 9.62349C96.072 9.62349 93.768 11.4996 93.768 15.8665C93.768 20.2333 96.152 21.5272 98.296 23.1042C99.984 24.39 101.504 25.514 101.504 27.5115C101.504 29.5089 101.008 29.428 99.856 29.428C98.168 29.428 97.92 27.7621 97.88 25.8941L93.392 26.6866C93.512 31.0939 95.656 33.5927 99.648 33.5927C103.64 33.5927 106.112 32.0077 106.112 27.188C106.112 22.3683 103.64 21.4868 101.504 19.8209C99.984 18.5756 98.416 17.2817 98.416 15.6158C98.416 13.9499 98.952 13.7882 99.984 13.7882C101.464 13.7882 101.464 15.8261 101.504 16.8692L105.912 16.0363L105.904 16.0282ZM179.624 33.0428H184.4V3.42092H179.624V33.0428ZM28.192 21.5596C28.192 16.0282 28.688 13.9014 30.456 13.9014C32.224 13.9014 32.72 16.0201 32.72 21.5596C32.72 27.099 32.224 29.2582 30.456 29.2582C28.688 29.2986 28.192 27.1395 28.192 21.5596ZM90.144 3.46136V7.78779H92C91.96 9.16254 91.304 9.78522 90.144 9.82566V12.3245C93.928 12.2032 94.92 9.33236 94.92 6.21087V3.46136H90.144ZM66.064 19.4004C66.144 17.1927 66.392 13.9095 68.368 13.9095C70.344 13.9095 70.304 17.1118 70.304 19.4004H66.064ZM155.296 19.4004C155.376 17.1927 155.624 13.9095 157.6 13.9095C159.576 13.9095 159.536 17.1118 159.536 19.4004H155.296ZM140.36 19.4004C140.44 17.1927 140.688 13.9095 142.664 13.9095C144.64 13.9095 144.6 17.1118 144.6 19.4004H140.36ZM30.208 4.25386V7.62605H29.264V4.25386H27.992V3.46136H31.488V4.25386H30.216H30.208ZM35.152 7.62605V5.96017H33.384V7.62605H32.44V3.46136H33.384V5.2081H35.152V3.46136H36.096V7.62605H35.152ZM37.336 7.62605V3.46136H40.344V4.25386H38.288V5.2081H40.144V6.00061H38.288V6.87398H40.432V7.66649C40.432 7.62605 37.344 7.62605 37.344 7.62605H37.336ZM45.52 7.62605L45.272 6.83355V6.87398H43.664V6.83355L43.416 7.62605H42.472L44.08 3.46136H44.984L46.592 7.62605H45.52ZM44.456 4.66629L43.92 6.16234H45.032L44.456 4.66629ZM48.896 7.70692C47.704 7.70692 47.168 7.0438 47.168 6.29173V3.46136H48.112V6.2513C48.112 6.62329 48.36 6.91442 48.896 6.91442C49.432 6.91442 49.68 6.66373 49.68 6.2513V3.46136H50.584V6.29173C50.584 7.0438 50.048 7.70692 48.896 7.70692ZM53.224 7.70692C52.608 7.70692 52.112 7.58562 51.576 7.33493L51.864 6.58286C52.192 6.75268 52.56 6.91442 53.136 6.91442C53.712 6.91442 54.04 6.70416 54.04 6.3726C54.04 6.04104 53.712 5.96017 53.176 5.87122C53.008 5.87122 52.928 5.83079 52.768 5.83079C52.112 5.70948 51.696 5.41836 51.696 4.70672C51.696 3.99509 52.44 3.42092 53.344 3.42092C54.248 3.42092 54.416 3.50179 54.864 3.75248L54.536 4.45603C54.128 4.24578 53.792 4.20534 53.384 4.20534C52.976 4.20534 52.6 4.4156 52.6 4.66629C52.6 4.91698 53.008 5.03828 53.464 5.12724C53.544 5.12724 53.712 5.16767 53.792 5.16767C54.576 5.33749 54.944 5.62862 54.944 6.3726C55.024 7.24597 54.248 7.70692 53.216 7.70692M57.792 4.25386V7.62605H56.848V4.25386H55.576V3.46136H59.032V4.25386H57.8H57.792ZM62.36 7.62605L61.576 6.08956H60.96V7.62605H60.016V3.46136H61.912C63.064 3.46136 63.312 4.08404 63.312 4.66629V4.91698C63.312 5.41836 63.024 5.79035 62.528 5.96017L63.392 7.62605H62.36ZM62.4 4.66629C62.4 4.4156 62.192 4.25386 61.744 4.25386H60.96V5.37793H61.744C62.2 5.37793 62.44 5.2081 62.44 4.91698L62.4 4.66629ZM67.008 7.62605L66.76 6.83355V6.87398H65.152V6.83355L64.904 7.62605H63.96L65.568 3.46136H66.472L68.08 7.62605H67.008ZM65.984 4.66629L65.448 6.16234H66.56L65.984 4.66629ZM68.864 7.62605V3.46136H69.808V6.83355H71.784V7.62605H68.864ZM72.728 3.46136H73.672V7.62605H72.728V3.46136ZM77.632 7.62605L77.344 6.83355V6.87398H75.736V6.83355L75.488 7.62605H74.504L76.112 3.46136H77.056L78.624 7.62605H77.64H77.632ZM76.52 4.66629L75.984 6.16234H77.096L76.52 4.66629ZM82.16 7.62605L80.304 5.0868V7.62605H79.44V3.46136H80.304L82.16 6.04104V3.46136H82.984V7.62605H82.16Z"></path>
</g>
<defs>
<clipPath id="clip0_1043_53">
<rect fill="white" height="41" width="200"></rect>
</clipPath>
</defs>
</svg>
