<svg xmlns="http://www.w3.org/2000/svg" fill="none" viewBox="0 0 202 57" height="57" width="202">
<mask height="57" width="202" y="0" x="0" maskUnits="userSpaceOnUse" style="mask-type:luminance" id="mask0_1043_115">
<path fill="white" d="M202 0.790039H0V56.7008H202V0.790039Z"></path>
</mask>
<g mask="url(#mask0_1043_115)">
<path fill="white" d="M0 14.4014H12.0181L19.0158 32.2704L26.1031 14.4014H37.8029L20.1836 56.7014H8.40959L13.2323 45.4928L0 14.4014Z"></path>
<path fill="white" d="M49.9941 13.689C40.9636 13.689 35.2573 21.7709 35.2573 29.819C35.2573 38.8753 41.5165 46.0568 49.8241 46.0568C56.0217 46.0568 58.3574 42.2888 58.3574 42.2888V45.2243H68.8399V14.4013H58.3574V17.2042C58.3574 17.2042 55.7499 13.689 49.9941 13.689ZM52.2248 23.5964C56.3925 23.5964 58.5397 26.8865 58.5397 29.8559C58.5397 33.0537 56.2349 36.1895 52.2248 36.1895C48.9005 36.1895 45.8943 33.476 45.8943 29.9916C45.8943 26.5073 48.3104 23.5964 52.2248 23.5964Z"></path>
<path fill="white" d="M72.4473 45.227V0.790039H83.4119V17.3117C83.4119 17.3117 86.0164 13.6947 91.4694 13.6947C98.1396 13.6947 102.051 18.6561 102.051 25.7451V45.227H91.1666V28.4124C91.1666 26.0134 90.0204 23.6946 87.4284 23.6946C84.8362 23.6946 83.4119 26.0474 83.4119 28.4124V45.227H72.4473Z"></path>
<path fill="white" d="M120.745 13.6948C110.404 13.6948 104.247 21.5424 104.247 29.9512C104.247 39.5194 111.702 46.0597 120.785 46.0597C129.868 46.0597 137.289 39.8156 137.289 30.1117C137.289 19.4918 129.225 13.6948 120.745 13.6948ZM120.843 23.6886C124.495 23.6886 127.022 26.7259 127.022 29.9635C127.022 32.7264 124.668 36.1307 120.843 36.1307C117.34 36.1307 114.708 33.3247 114.708 29.9328C114.708 26.5408 116.895 23.6886 120.843 23.6886Z"></path>
<path fill="white" d="M155.551 13.6948C145.21 13.6948 139.053 21.5424 139.053 29.9512C139.053 39.5194 146.508 46.0597 155.591 46.0597C164.674 46.0597 172.095 39.8156 172.095 30.1117C172.095 19.4918 164.031 13.6948 155.551 13.6948ZM155.649 23.6886C159.301 23.6886 161.829 26.7259 161.829 29.9635C161.829 32.7264 159.474 36.1307 155.649 36.1307C152.146 36.1307 149.514 33.3247 149.514 29.9328C149.514 26.5408 151.701 23.6886 155.649 23.6886Z"></path>
<path fill="white" d="M180.748 31.3486C184.768 31.3486 188.026 34.6017 188.026 38.6135C188.026 42.6251 184.768 45.8782 180.748 45.8782C176.729 45.8782 173.469 42.6251 173.469 38.6135C173.469 34.6017 176.729 31.3486 180.748 31.3486Z"></path>
<path fill="white" d="M190.419 28.6808H177.312L188.945 0.790039H202.002L190.419 28.6808Z"></path>
</g>
</svg>
